<svg xmlns="http://www.w3.org/2000/svg" xmlns:xlink="http://www.w3.org/1999/xlink" width="334" height="415" viewBox="0 0 334 415"><defs><style>.a{fill:#fff;}.b{clip-path:url(#a);}.c{opacity:0.1;}.d{fill:#b7bfd1;}.e{opacity:0.2;}</style><clipPath id="a"><path class="a" d="M5,0H334a0,0,0,0,1,0,0V415a0,0,0,0,1,0,0H5a5,5,0,0,1-5-5V5A5,5,0,0,1,5,0Z" transform="translate(-939 1439)"/></clipPath></defs><g class="b" transform="translate(939 -1439)"><g transform="translate(-994.339 1441.423)"><g transform="translate(-79.817 -225.423)"><g class="c" transform="translate(102.94 97.06)"><path class="d" d="M641.554-25.752c-.307.158-.579.374-.866.559l-90.463-123.34a10.037,10.037,0,0,0,1.853-11.689,10.074,10.074,0,0,0-13.57-4.345,10.023,10.023,0,0,0-4.791,5.428L390.693-204.887a9.935,9.935,0,0,0-.934-6.316,10.073,10.073,0,0,0-13.572-4.338,10.053,10.053,0,0,0-5.129,11.44L225.49-156.074a10.06,10.06,0,0,0-13.476-4.2,10.078,10.078,0,0,0-4.345,13.57,9.917,9.917,0,0,0,3.549,3.834L123.75-21.328a10,10,0,0,0-8.442.312,10.082,10.082,0,0,0-4.342,13.575,10.035,10.035,0,0,0,8.249,5.4l.678,148.012a9.953,9.953,0,0,0-4.2,1.087,10.075,10.075,0,1,0,9.229,17.913,9.622,9.622,0,0,0,.9-.582l86.536,117.983a10.047,10.047,0,1,0,14.1,13.815l147.217,47.093a10.067,10.067,0,1,0,20.011.405L539.127,295.7c.105.253.178.517.308.769A10.075,10.075,0,1,0,554,283.532l88.908-123.552a10.039,10.039,0,1,0,4.259-19.3L646.5-6.76a9.932,9.932,0,0,0,4.285-1.08,10.077,10.077,0,0,0,4.35-13.572A10.075,10.075,0,0,0,641.554-25.752Zm.544,167.493c-.177.092-.314.218-.48.31L630.072,124.4a8.614,8.614,0,0,0-5.344-15.57L625.02,76l.218-24.3c.25-.016.5-.086.739-.124l18.26,89.377A9.518,9.518,0,0,0,642.1,141.741Zm-4.348,13.577a10.012,10.012,0,0,0,1.234,1.81L606.653,180.64a8.988,8.988,0,0,0-3.335-2.445l19.129-52.47a8.648,8.648,0,0,0,6.48-.579c.129-.067.225-.16.346-.229l11.55,17.657A10.05,10.05,0,0,0,637.751,155.319ZM543.776,282.9a10.016,10.016,0,0,0-5.418,8.8l-35.983,1.139a9.2,9.2,0,0,0-2.328-5.309l49.659-50.11,29.3-18.577a8.655,8.655,0,0,0,3.01,2.945l-30.482,60.521A9.988,9.988,0,0,0,543.776,282.9ZM392.3,339.458a10.051,10.051,0,0,0-13.254-3.855,9.934,9.934,0,0,0-4.31,4.378L348.785,325a9.821,9.821,0,0,0,.587-1.343,8.986,8.986,0,0,0,.228-4.45l15.205-2.486a6.554,6.554,0,0,0,2.1-.335l72.159-11.772a5.866,5.866,0,0,0,.5,1.438,6.426,6.426,0,0,0,.494.8ZM215.1,280.979l-9.192-23.231a9.1,9.1,0,0,0,3.155-2.384L284.4,293.312a8.609,8.609,0,0,0-2.744,5.809L228.2,291.186a10.021,10.021,0,0,0-13.1-10.207ZM156.392,162.31l24.322,3.929a8.627,8.627,0,0,0,9.46,9.5l10.13,64.934a9.125,9.125,0,0,0-2.943,1.154Zm-33.36-15.945,6.463-27.836a9.251,9.251,0,0,0,3.246-.042l21.946,42.595-24.4-3.943a9.917,9.917,0,0,0-7.251-10.775Zm10.825-45.415c-.12-.038-.242-.044-.372-.077l8.527-55.448,24.673,58.753c-.12.048-.233.082-.343.138A6.658,6.658,0,0,0,163.574,107l-.339.765a6.529,6.529,0,0,0-.452,1.97l-22.649-.438A9.06,9.06,0,0,0,133.856,100.951ZM161.229-44.526l7.708-7.772a8.6,8.6,0,0,0,7.511,2.431l1.619,1.512L162.692-42.27A9.492,9.492,0,0,0,161.229-44.526ZM269.99-143.091a7.621,7.621,0,0,0,.2-.857l18.093,2.912a6.477,6.477,0,0,0,.6,1.853,6.491,6.491,0,0,0,2.429,2.573l-45.8,56.7-.875.225a8.607,8.607,0,0,0-8.551-.4,8.608,8.608,0,0,0-3.619,3.527L181.942-63.569a9.5,9.5,0,0,0-.884-.962l74.068-74.745a9.049,9.049,0,0,0,3.448,2.067A9.083,9.083,0,0,0,269.99-143.091Zm78.576-30.352a8.6,8.6,0,0,0,4.644-7.623l29.416-1.374a3.986,3.986,0,0,0,.37,1.17,3.976,3.976,0,0,0,2.14,1.9l-6.307,12.2-65.11,10.616,24.245-19.05A8.648,8.648,0,0,0,348.566-173.444ZM624.4,51.674l-.228,25.676-.288,31.545a8.534,8.534,0,0,0-7.314,10.585l-6.27,1.875,10.884-70.8A6.771,6.771,0,0,0,624.4,51.674ZM602.444,177.837c-.268-.081-.535-.113-.8-.177l8.516-55.385,6.657-2a8.95,8.95,0,0,0,.45,1.141,8.6,8.6,0,0,0,4.3,3.959Zm-9.515,14.622-44.152,44.553L450.861,299.1a6.481,6.481,0,0,0-2.371-2.033l2.534-5.89,22.648-52.759a6.635,6.635,0,0,0,8.705-7.809l109.4-39.843A9.261,9.261,0,0,0,592.929,192.459ZM484.686,290.827a8.976,8.976,0,0,0-.035,5.4l-32.681,5.332a6.528,6.528,0,0,0-.556-1.614c-.028-.054-.066-.091-.091-.141l94.788-60.114-46.717,47.153a8.951,8.951,0,0,0-3.292-1.9A9.072,9.072,0,0,0,484.686,290.827Zm-145.029-52.51-47.179,24.829a8.625,8.625,0,0,0-11.434-3.389,8.942,8.942,0,0,0-1.267.816L246.242,202.9a5.65,5.65,0,0,0,.589-.234,6.587,6.587,0,0,0,3.019-3.268l87.654,31.9a6.688,6.688,0,0,0,2.152,7.024ZM286.3,291.945a7.827,7.827,0,0,0-1.1.716l-75.581-38.083a9.232,9.232,0,0,0,1.179-2.313,9.09,9.09,0,0,0-5.885-11.421c-.118-.034-.232-.037-.35-.071l35.062-38.827a6.645,6.645,0,0,0,5.824,1.238l33.809,57.839a8.606,8.606,0,0,0,6.013,15.043l3.157,15.146A8.681,8.681,0,0,0,286.3,291.945ZM139.736,112.363a8.631,8.631,0,0,0,.391-2.114l22.65.439a7.506,7.506,0,0,0,.108.854l.206.816a7.58,7.58,0,0,0,.381.945,6.483,6.483,0,0,0,1.575,1.986l.682.495a6.666,6.666,0,0,0,5.7.812l14.641,42.57c-.238.1-.487.162-.725.286a8.782,8.782,0,0,0-1.824,1.3l-45.663-45.128A8.82,8.82,0,0,0,139.736,112.363Zm31.861-8.4,12.453-39a6.646,6.646,0,0,0,4.631-.505l47.648,81.108a3.975,3.975,0,0,0-1.009,1.185l-60.03-33.387a6.648,6.648,0,0,0-3.694-9.4ZM140.384,18.084l4.964-.551-2.136,13.829-1.834-1.149-3.3-2.079A8.634,8.634,0,0,0,140.384,18.084Zm5.935-.663,84.876-9.532a6.679,6.679,0,0,0,.612,1.918,6.481,6.481,0,0,0,.913,1.31l-6.548,6.509L190.083,53.534a6.582,6.582,0,0,0-9.807,1.1L144.091,31.914Zm16.8-53.157a8.934,8.934,0,0,0-.068-5.658l15.783-6.244,29.974,27.968L232.587,2.513a6.7,6.7,0,0,0-1.5,4.543l-84.634,9.5,7.073-46.027A9.1,9.1,0,0,0,163.117-35.735ZM365.866-140.269l13.456-26.021,23.786-3.878a9.04,9.04,0,0,0,5.847,5.835,8.816,8.816,0,0,0,3.661.365l8.892,61.5a6.4,6.4,0,0,0-2.541.714,6.6,6.6,0,0,0-2.024,1.608L383.105-122.34l-13.786-9.049a6.642,6.642,0,0,0-.123-5.824A6.588,6.588,0,0,0,365.866-140.269Zm82.989-31.717-28.341-3.075a9.062,9.062,0,0,0-.658-1.874ZM547.3-146.478,599.909-44.364c-.24.143-.474.3-.694.452L561.652-93.765a6.667,6.667,0,0,0,1.595-8.115,6.411,6.411,0,0,0-.724-1.1l-1.909-.5a9.056,9.056,0,0,0-6.268-8.747,9.016,9.016,0,0,0-3.532-.369l-5.57-33.2A10.275,10.275,0,0,0,547.3-146.478Zm48.4,108.45-8.485.753-28.375-55.07a6.441,6.441,0,0,0,1.538-.543c.218-.112.4-.257.6-.384l37.588,49.879A8.653,8.653,0,0,0,595.694-38.028ZM472.9,238.083l-20.936,48.768-4.238,9.883a6.676,6.676,0,0,0-3.618-.242l-26.7-95.385-2.5-8.94a7.188,7.188,0,0,0,.859-.342,6.581,6.581,0,0,0,2.071-1.663l52.477,38.407a6.608,6.608,0,0,0,2.588,9.514Zm-150.05-103.1L292.774,172a6.637,6.637,0,0,0-6.909-.51,6.553,6.553,0,0,0-2.513,2.3l-41.063-23.143a3.889,3.889,0,0,0,.486-1.769l78.44-17.12a6.556,6.556,0,0,0,.59,1.778A6.66,6.66,0,0,0,322.848,134.986Zm-79.323,55.105-2-19.813-1.78-17.706a4.079,4.079,0,0,0,.894-.322,3.8,3.8,0,0,0,1.157-.917L280.6,173.2l2.334,1.318a6.634,6.634,0,0,0-.274,5.114l-32.941,14.1-.028-.054A6.649,6.649,0,0,0,243.525,190.091Zm-45.585-23.536,14.375-5.544L239.116,192a6.972,6.972,0,0,0-1.007,1.284l-41.758-21.168A8.632,8.632,0,0,0,197.939,166.556Zm42.78,24.247a7.156,7.156,0,0,0-.98.63L213.147,160.7l23.12-8.909a3.991,3.991,0,0,0,2.648.893l3.768,37.506A6.259,6.259,0,0,0,240.719,190.8ZM190.67,54.127,227.12,17.871l6.187-6.16a6.638,6.638,0,0,0,7.475.976,6.455,6.455,0,0,0,.888-.577l35.747,42.826,14.012,16.79a6.655,6.655,0,0,0-1.9,3.336L192.3,59.171a6.426,6.426,0,0,0-1.628-5.044Zm95.282-138.3a5.782,5.782,0,0,0,2.786-7.067l50.181-24.771a6.712,6.712,0,0,0,.766,1.073L307.037-82.411,294.285-69.7a6.668,6.668,0,0,0-5.638-2.619l-2.913-11.761C285.8-84.118,285.883-84.135,285.952-84.17Zm8.971,15.449c-.049-.094-.12-.17-.173-.262l45.521-45.351a6.51,6.51,0,0,0,2.61,1.415l-.335,1.515L319.164-2.429a6.57,6.57,0,0,0-3.125.713c-.035.018-.064.046-.1.066l-20.13-50.045-3.337-8.314A6.644,6.644,0,0,0,294.922-68.721ZM420.073-169.529,453.266-152.8,424.78-101.869a6.662,6.662,0,0,0-2.425-.593L413.42-164.1A9.1,9.1,0,0,0,420.073-169.529Zm40.764,3.2-7.106,12.7-33.318-16.787a9.163,9.163,0,0,0,.3-3.683l38.166,4.12a4.485,4.485,0,0,0,.48,2A4.452,4.452,0,0,0,460.837-166.328Zm49.265,28.06-8.382,8.827-11.21-5.655,14.7-8.485a8.577,8.577,0,0,0,.563,1.422A8.278,8.278,0,0,0,510.1-138.268Zm-9.058,9.533L485.068-111.9a8.613,8.613,0,0,0-.725-2.09,8.658,8.658,0,0,0-11.656-3.734,8.658,8.658,0,0,0-3.729,11.661,8.607,8.607,0,0,0,6.257,4.538l-17.2,18.113a6.67,6.67,0,0,0-7.335-.811,6.526,6.526,0,0,0-2.495,2.289L428.5-93.1l-.333-.2a6.642,6.642,0,0,0-.22-5.587c-.018-.034-.048-.069-.066-.1l61.649-35.54Zm53.306,35.867L531.144-37.934a6.648,6.648,0,0,0-5.261.353,6.633,6.633,0,0,0-2.358,2.081L459.607-75.142a6.626,6.626,0,0,0,.709-4.028l86.016-17.042a8.955,8.955,0,0,0,2.474,1.284,8.85,8.85,0,0,0,3.415.372A6.71,6.71,0,0,0,554.351-92.869ZM615.468,38.053a9.027,9.027,0,0,0,2.983,2.382l.989.788a6.623,6.623,0,0,0-1.2,4.138L501.147,58.455a6.766,6.766,0,0,0-.612-1.9,6.628,6.628,0,0,0-3.2-2.995l29.663-78.83a6.653,6.653,0,0,0,5-.445,6.52,6.52,0,0,0,1.875-1.461l77.148,61.669ZM424.176,3.229l-6.955,52.5a6.49,6.49,0,0,0-5.179,2.568l-16.484-9.478L324.559,8a6.7,6.7,0,0,0,1.17-3.4l92-6.9,1.149-.084A6.416,6.416,0,0,0,419.53-.24,6.633,6.633,0,0,0,424.176,3.229ZM411.564,58.989a6.738,6.738,0,0,0-.895,2.925l-16.981,2.1-91.16,11.3a6.829,6.829,0,0,0-.605-1.82,6.615,6.615,0,0,0-3.574-3.163l18.4-59.9a6.626,6.626,0,0,0,5.4-.287,6.8,6.8,0,0,0,1.891-1.477ZM302.654,76.152l44.47-5.525,63.529-7.871a6.627,6.627,0,0,0,.666,2.535L332.343,125.7a6.636,6.636,0,0,0-7.6-1.177L299.731,82.041A6.643,6.643,0,0,0,302.654,76.152Zm31.008,51.274a6.552,6.552,0,0,0-.731-1.115L411.75,66.016a6.628,6.628,0,0,0,4.462,2.917l-2.994,89.029-.712,21.28a6.422,6.422,0,0,0-5.116,2.654L382.52,165.585l-48.868-32.059A6.65,6.65,0,0,0,333.662,127.426Zm80.4,30.459,2.989-88.87a6.588,6.588,0,0,0,3.3-.71,6.658,6.658,0,0,0,3.586-6.5l49.184-1.232,14.846-.382a6.565,6.565,0,0,0,.708,2.469,6.682,6.682,0,0,0,1.962,2.288l-37.081,57.193L415.97,180.085a6.663,6.663,0,0,0-2.625-.823Zm59.221-98.16-49.491,1.246a6.544,6.544,0,0,0-.561-1.649,6.661,6.661,0,0,0-5.164-3.572L425,3.348a6.636,6.636,0,0,0,3.511-.705,6.361,6.361,0,0,0,1.172-.779L489.1,55.9a6.609,6.609,0,0,0-1.126,3.451ZM430.66.879a6.683,6.683,0,0,0,1.323-5.391L522.7-29.377a5.737,5.737,0,0,0,.3.784,6.627,6.627,0,0,0,2.849,2.84l-29.686,78.91a6.621,6.621,0,0,0-4.62.525,6.487,6.487,0,0,0-1.567,1.158ZM428.185-9.34l23.6-62.579a6.661,6.661,0,0,0,5.008-.442,6.6,6.6,0,0,0,2.363-2.083L523.069-34.8a6.678,6.678,0,0,0-.633,4.5l-90.7,24.848a7.525,7.525,0,0,0-.36-.894A6.561,6.561,0,0,0,428.185-9.34Zm114.739-97A9.059,9.059,0,0,0,545.46-96.9l-22.937,4.544L460.179-80a7.214,7.214,0,0,0-.523-1.355,6.68,6.68,0,0,0-1.052-1.458l17.664-18.608a8.618,8.618,0,0,0,4.347-.922,8.637,8.637,0,0,0,4.63-8.537l16.582-17.461,41.553,20.941A9.709,9.709,0,0,0,542.924-106.345ZM427.411-99.694a6.511,6.511,0,0,0-1.89-1.78l28.5-50.949,34.608,17.44Zm.406,7.164,19.937,11.324a6.655,6.655,0,0,0,.049,5.962,6.6,6.6,0,0,0,3.2,3.006L437.85-37.351,427.41-9.662a6.6,6.6,0,0,0-1.768-.268l-2.779-79.3a6.538,6.538,0,0,0,2.215-.665A6.632,6.632,0,0,0,427.817-92.529ZM424.8-9.922a6.789,6.789,0,0,0-2.4.7,6.641,6.641,0,0,0-3.587,6.012l-1.39.1L325.75,3.754a6.72,6.72,0,0,0-.722-2.593A6.722,6.722,0,0,0,323.92-.345L345.887-21.64l71.558-69.37a6.643,6.643,0,0,0,4.585,1.827Zm-8.71-82.854a6.375,6.375,0,0,0,.771,1.17L329.728-7.144l-6.4,6.2a6.772,6.772,0,0,0-3.306-1.438l6.522-30.424L343.7-112.733a6.6,6.6,0,0,0,4.034-.655,6.645,6.645,0,0,0,3.189-3.631l64.718,19.3A6.633,6.633,0,0,0,416.09-92.776ZM295.364-50.557l19.857,49.37a6.655,6.655,0,0,0-2.773,5.655L244.369,6.149a6.693,6.693,0,0,0-.706-2.452,6.616,6.616,0,0,0-1.68-2.081L286.6-59.468a6.617,6.617,0,0,0,5.116-.134ZM312.552,5.305a6.578,6.578,0,0,0,.617,1.965,6.666,6.666,0,0,0,2.8,2.833l-9.541,31.076-8.884,28.907a6.622,6.622,0,0,0-4.6.527,6.165,6.165,0,0,0-.868.566L242.306,11.564a6.579,6.579,0,0,0,2.063-4.575ZM289.375,75.889a6.535,6.535,0,0,0,2.208,5.622l-50.248,64.1a3.993,3.993,0,0,0-4.294-.484L189.389,64.017A6.625,6.625,0,0,0,192.145,60Zm-15.589,65.364-31.063,6.782a3.943,3.943,0,0,0-.368-1.164,4.055,4.055,0,0,0-.427-.659l25.552-32.592,24.771-31.6a6.62,6.62,0,0,0,6.767.476l24.767,42.044.247.431a6.64,6.64,0,0,0-2.949,5.959Zm57-4.835a6.545,6.545,0,0,0,2.419-2.18L382.549,166.6,406.91,182.6a6.646,6.646,0,0,0-.132,6.351c.063.124.16.225.229.346l-57.87,39.762a6.661,6.661,0,0,0-5.871-2.524l-6.855-43.058-7.4-46.47A6.582,6.582,0,0,0,330.79,136.418Zm19.028,93.691c-.061-.119-.155-.227-.224-.349L407.464,190a6.662,6.662,0,0,0,6.628,2.4l9.217,32.931,19.981,71.4a7.113,7.113,0,0,0-.861.337,6.515,6.515,0,0,0-2.18,1.832l-47.573-32.7L349.6,236.583A6.651,6.651,0,0,0,349.818,230.108ZM418.3,189.473a6.651,6.651,0,0,0,.831-5.326l107.977-36.817c.079.178.124.35.213.524a6.535,6.535,0,0,0,1.935,2.258l-50.053,76.254a6.64,6.64,0,0,0-8.428,1.509Zm108.514-42.919-47.192,16.077-60.792,20.725c-.07-.171-.112-.351-.2-.519a6.639,6.639,0,0,0-1.967-2.284l74.67-115.137a6.63,6.63,0,0,0,5.624.4L506.346,86.5l23.778,52.416A6.68,6.68,0,0,0,526.818,146.554ZM507.03,85.987,497.742,65.5a6.676,6.676,0,0,0,3.514-6.212L618.346,46.2a6.018,6.018,0,0,0,1.746,3.44l-82.654,89.98a6.654,6.654,0,0,0-6.547-1.023ZM539.723,143.3l69.432-20.738-8.439,54.9a9.087,9.087,0,0,0-8.328,3.745L539.6,146.828A6.6,6.6,0,0,0,539.723,143.3Zm39.331-12.615L539.476,142.5c-.1-.251-.176-.511-.3-.749a6.857,6.857,0,0,0-1.133-1.542L620.19,50.757l-10.9,70.891Zm34.831-101.1a9,9,0,0,0,.372,6.417l-11.829-9.45L534.383-27.838a6.67,6.67,0,0,0,1.2-3.981l14.167-1.261,13.08-1.171A8.624,8.624,0,0,0,574.1-31.115a8.6,8.6,0,0,0,4.045-4.5l8.464-.756,31.38,60.9A9,9,0,0,0,613.885,29.589ZM578.446-36.49a8.589,8.589,0,0,0-.614-6.28A8.663,8.663,0,0,0,566.171-46.5a8.639,8.639,0,0,0-3.809,11.444L544.4-33.449l-8.9.8a6.365,6.365,0,0,0-.63-2.051,6.57,6.57,0,0,0-2.958-2.891l11.536-27.3,11.669-27.639a6.657,6.657,0,0,0,2.734.353l28.34,55ZM543.8-108.24l-41.3-20.809,8.463-8.913a8.279,8.279,0,0,0,6.051-.6,8.485,8.485,0,0,0,1.548-1.048l27.377,28.941A9.245,9.245,0,0,0,543.8-108.24Zm-38.771-36.194-15.418,8.885-35.124-17.7,7.086-12.668a4.49,4.49,0,0,0,3.915-.092,4.5,4.5,0,0,0,1.8-1.7l38.236,18.53A8.291,8.291,0,0,0,505.032-144.434ZM403.5-176.722l-12.734-5.183,14.6,2.49A8.912,8.912,0,0,0,403.5-176.722Zm-17.528-2.425a3.977,3.977,0,0,0,2.421-.388,3.99,3.99,0,0,0,1.676-1.628l13.055,5.307c-.012.038-.033.068-.048.113a8.886,8.886,0,0,0-.2,4.646l-23.02,3.759Zm2.971,61.638,27.515,18.048a7.051,7.051,0,0,0-.512.953l-7.669-2.288-57.129-17.035a6.611,6.611,0,0,0-.541-4.543,6.175,6.175,0,0,0-.665-1.012l.851-.745a8.641,8.641,0,0,0,8.242.174,8.585,8.585,0,0,0,3.639-3.574,6.511,6.511,0,0,0,3.664-.69,6.6,6.6,0,0,0,2.582-2.415Zm-41.567-10.174a8.614,8.614,0,0,0,2.7,3.061l-.7.609a6.653,6.653,0,0,0-7.761-1.237,6.632,6.632,0,0,0-2.813,2.767l-16.742-7.69-21.044-9.675a7.209,7.209,0,0,0,.354-1.285l46.455,4.814A8.626,8.626,0,0,0,347.376-127.683Zm-8.905,5.974a6.647,6.647,0,0,0,.085,4.948l-45.5,22.451-4.644,2.292a5.73,5.73,0,0,0-2.908-2.627l8.383-40.99a6.626,6.626,0,0,0,3.983-.666,6.682,6.682,0,0,0,2.816-2.774Zm-45.4-14.114-8.362,40.91a5.729,5.729,0,0,0-4.066.446,5.783,5.783,0,0,0-3.005,6.3L247.061-80.3l45.112-55.856A7.092,7.092,0,0,0,293.074-135.822Zm-15.2,48.459a4.718,4.718,0,0,0,.272.7,5.791,5.791,0,0,0,6.806,2.89l2.862,11.568a6.668,6.668,0,0,0-1.877.6,6.652,6.652,0,0,0-3.559,6.637l-14.157.647-53.408,2.43,17.417-6.892c.054.117.079.241.138.355A8.653,8.653,0,0,0,244.021-64.7a8.652,8.652,0,0,0,3.727-11.653,8.539,8.539,0,0,0-1.912-2.444l.341-.421Zm-46,17.7L211.9-61.751l-28.481,1.3a8.292,8.292,0,0,0-.679-1.876c-.092-.179-.223-.324-.325-.5l49.635-12.758A8.619,8.619,0,0,0,231.877-69.659Zm-48.3,10.039L209.508-60.8,178.931-48.7l-1.46-1.361a8.86,8.86,0,0,0,1.54-.612A8.63,8.63,0,0,0,183.575-59.62Zm28.843-1.317,70.107-3.2a6.56,6.56,0,0,0,.54,1.521,6.663,6.663,0,0,0,2.742,2.8L241.287,1.14a6.634,6.634,0,0,0-6.615-.316,6.473,6.473,0,0,0-1.5,1.09L194.665-34.007,179.7-47.978Zm22.573,208.458a3.972,3.972,0,0,0,.263,3.006,3.621,3.621,0,0,0,.331.506l-23.095,8.9-27.56-31.876-11.11-12.837a6.263,6.263,0,0,0,1.011-1.154Zm-51.575-19.935,28.246,32.67L197.79,165.6a8.53,8.53,0,0,0-10.834-6.777l-14.644-42.575c.05-.025.1-.038.144-.061a6.662,6.662,0,0,0,.7-.455Zm9.862,47.253a8.68,8.68,0,0,0,2.485-1.957l41.918,21.236a6.724,6.724,0,0,0-.564,2.836l.1.839a6.484,6.484,0,0,0,.62,2,6.71,6.71,0,0,0,1.181,1.586L203.6,240.579a9.141,9.141,0,0,0-2.37-.083l-10.121-64.928A8.439,8.439,0,0,0,193.278,174.839Zm56.879,23.78a6.62,6.62,0,0,0-.132-4.1l32.946-14.1c.013.024.009.039.016.055a6.677,6.677,0,0,0,8.99,2.88,6.833,6.833,0,0,0,1.318-.911l16.783,17.031,28.852,29.259a6.883,6.883,0,0,0-1.12,1.781Zm66.233,6.055-22.506-22.822a6.663,6.663,0,0,0,.966-7.5,6.935,6.935,0,0,0-1.417-1.835l11.924-14.671,18.08-22.265a6.683,6.683,0,0,0,4.741,1.558l7.333,46.029,6.923,43.511a6.322,6.322,0,0,0-1.6.553,6.776,6.776,0,0,0-1.313.908Zm29.7,34.762a5.548,5.548,0,0,0,.86-.338,6.56,6.56,0,0,0,2.18-1.819l43.315,29.765,47.328,32.539a6.575,6.575,0,0,0-.928,3.688l-67.436,6.955a6.6,6.6,0,0,0-7.4-6.784Zm25.253,71.647,60.616-6.269L369.192,315.05A6.654,6.654,0,0,0,371.342,311.083ZM482.113,229.8c-.095-.233-.155-.472-.277-.71a6.618,6.618,0,0,0-1.935-2.257l50.05-76.248a6.656,6.656,0,0,0,6.356.142,6.577,6.577,0,0,0,2.968-3.135l52.66,34.306a9.279,9.279,0,0,0-.842,1.832,8.923,8.923,0,0,0,.336,6.311ZM618.834,24.1,587.628-36.461l8.032-.721a8.528,8.528,0,0,0,.921,4.222,8.633,8.633,0,0,0,8.556,4.628l13.79,52.4C618.891,24.081,618.859,24.091,618.834,24.1ZM544.315-145.631l5.552,33.144a9.084,9.084,0,0,0-3.138,1.272l-27.484-29.061a8.319,8.319,0,0,0,1.373-9.53,8.348,8.348,0,0,0-11.247-3.6,8.359,8.359,0,0,0-3.482,3.38l-38.2-18.539c.017-.052.046-.105.061-.162l65.434,11.809a9.907,9.907,0,0,0,.978,5.924A10.069,10.069,0,0,0,544.315-145.631ZM459.02-171.217l-39.79-6.788a8.974,8.974,0,0,0-4.741-3.627,9.054,9.054,0,0,0-8.228,1.411L390.546-182.9a4,4,0,0,0-.429-2.037,3.994,3.994,0,0,0-4.243-2.09l-2.917-9.752a10.1,10.1,0,0,0,2.46-.848,9.949,9.949,0,0,0,4.446-4.636l69.983,29.387A4.5,4.5,0,0,0,459.02-171.217Zm-77-25.4,2.954,9.859c-.082.036-.171.057-.25.1a4.013,4.013,0,0,0-2,2.427l-.372-.065.358.148a3.587,3.587,0,0,0-.135.759l-29.384,1.376a8.594,8.594,0,0,0-.9-3.085,8.356,8.356,0,0,0-1.258-1.773l21.593-13.891A10.029,10.029,0,0,0,382.018-196.618Zm-3.728,30.49-13.215,25.564a6.637,6.637,0,0,0-4.853.475,6.455,6.455,0,0,0-1.173.78,8.631,8.631,0,0,0-7.942-.034,8.641,8.641,0,0,0-2.743,2.234l-46.912-4.861a6.663,6.663,0,0,0-.708-3.322,5.914,5.914,0,0,0-.463-.7l11.906-9.351ZM299.77-146.666a6.651,6.651,0,0,0-8.007-1.5,6.639,6.639,0,0,0-3.593,6.146l-17.822-2.863a9.156,9.156,0,0,0-.315-3.593l40.434-6.594ZM151.8-29.834c.263.072.535.113.795.167l-7.119,46.339L140,17.286a8.6,8.6,0,0,0-4.106-3.659ZM136.457,29.231a8.1,8.1,0,0,0,.878-.572l3.3,2.082,2.447,1.523-1.492,9.711-5.325-12.67C136.328,29.273,136.4,29.262,136.457,29.231Zm7.49,3.584,35.86,22.514a6.672,6.672,0,0,0-.775,3.29l.067.837a6.538,6.538,0,0,0,.637,2.111,6.655,6.655,0,0,0,3.515,3.136l-12.46,39.052a6.7,6.7,0,0,0-3.225.094L142.284,43.642Zm-10.24,85.469a9.083,9.083,0,0,0,3.486-1.984l45.659,45.119a8.523,8.523,0,0,0-1.95,3.883l-25.049-4.037ZM289.366,291.048l-3.144-15.072a8.494,8.494,0,0,0,2.747-.838,8.644,8.644,0,0,0,3.829-11.41l47.558-24.943a6.65,6.65,0,0,0,4.924.88l17.9,63.931a6.412,6.412,0,0,0-1.465.528,6.658,6.658,0,0,0-3.458,7.212l.215.831a6.576,6.576,0,0,0,.37.95,6.841,6.841,0,0,0,1.035,1.437l.6.61a6.639,6.639,0,0,0,1.691,1.029l-12.759,2.084a9.061,9.061,0,0,0-16.681-1.669L298.88,299.546a8.555,8.555,0,0,0-9.514-8.5Zm162.767,11.435,32.878-5.352a9.525,9.525,0,0,0,.838,1.518l-33.715,3.908C452.134,302.532,452.134,302.507,452.133,302.482Zm49.851-6.121a8.949,8.949,0,0,0,.417-2.585l34.755-1.09-35.359,4.1C501.853,296.642,501.931,296.513,501.984,296.361Zm80.378-89.76a8.643,8.643,0,0,0-3.789,11.508l-26.217,16.625,41.224-41.594a9.257,9.257,0,0,0,2.054,1.431l-5.9,11.816A8.6,8.6,0,0,0,582.362,206.6ZM625.3,23.707a8.926,8.926,0,0,0-5.578.078L605.969-28.48a8.659,8.659,0,0,0,2.269-.755,8.641,8.641,0,0,0,3.62-3.527l25.055,12.034a10.033,10.033,0,0,0,.308,8.545,9.9,9.9,0,0,0,5.04,4.62L626.9,24.4A9.357,9.357,0,0,0,625.3,23.707Zm14.594-48.384a10.116,10.116,0,0,0-2.556,3.11L612.226-33.628a8.593,8.593,0,0,0-.265-7.257,8.654,8.654,0,0,0-8.277-4.671l.041-1.138c-.051-.1-.1-.2-.148-.3-.2-.4-.424-.785-.628-1.181l-.111,2.754a8.822,8.822,0,0,0-2.086.623L548.146-146.9a9.92,9.92,0,0,0,1.4-.964ZM390.5-203.965l142.927,45.729c-.031.122-.039.252-.068.38l-65.43-11.8a4.508,4.508,0,0,0-.479-2.487,4.552,4.552,0,0,0-6.126-1.96,4.935,4.935,0,0,0-.772.5L390.233-203.14C390.324-203.412,390.421-203.687,390.5-203.965Zm-19.14.763a10.085,10.085,0,0,0,.488,1.228c.079.153.183.269.269.413l-21.759,14a8.635,8.635,0,0,0-9.721-1.268,8.662,8.662,0,0,0-3.731,11.66,8.288,8.288,0,0,0,.574.883l-25.472,20.016-42.34,6.9a9.016,9.016,0,0,0-5.562-5.135,9.083,9.083,0,0,0-11.416,5.882c-.089.29-.153.58-.217.87l-25.855-4.154a10.019,10.019,0,0,0-.743-3.291ZM212.032-142.373a10.044,10.044,0,0,0,9.212.013,9.945,9.945,0,0,0,5.38-8.592l25.706,4.131a9.1,9.1,0,0,0,2.145,6.865L180.351-65.17a8.633,8.633,0,0,0-9.267-.887A8.657,8.657,0,0,0,167.359-54.4a9.325,9.325,0,0,0,.915,1.422l-7.7,7.772a9.036,9.036,0,0,0-3.337-1.949,9.086,9.086,0,0,0-11.426,5.887,9.02,9.02,0,0,0,1.192,7.876L127.6-18.532a9.963,9.963,0,0,0-2.948-2.412ZM120.168-2.018A9.972,9.972,0,0,0,124.54-3.1a10.078,10.078,0,0,0,4.343-13.574,9.229,9.229,0,0,0-.694-1.116l19.385-14.842a9.113,9.113,0,0,0,3.345,2.44l-15.9,43.467a8.638,8.638,0,1,0,.376,16.379l5.918,14.1-8.749,56.917a9.061,9.061,0,0,0-4.24,17.572c.088.037.173.043.255.07l-6.461,27.827a10.357,10.357,0,0,0-1.276-.151Zm6.449,165.894a10.1,10.1,0,0,0,3.54-5.787l25.069,4.039,41.327,80.207a9.067,9.067,0,0,0,8.477,15.748l9.2,23.246c-.233.094-.466.152-.689.267-.139.072-.255.175-.391.252ZM373.87,342.349l-146.864-46.98a10.155,10.155,0,0,0,1.09-3.239l53.536,7.944a8.643,8.643,0,0,0,17.223.52l33.494,16.873c-.09.227-.212.429-.284.654a9.065,9.065,0,0,0,16.244,7.7l26.04,15.039A9.906,9.906,0,0,0,373.87,342.349Zm19.647.392a10.557,10.557,0,0,0-.761-2.449l47.9-32.705a6.679,6.679,0,0,0,5.143,2.059c.932-.248,1.868-.485,2.8-.751a6.612,6.612,0,0,0,3.52-5.375l34.435-4.011a8.785,8.785,0,0,0,4.017,2.734,9.063,9.063,0,0,0,10.793-4.451l37.134-4.309a10.2,10.2,0,0,0,.283,1.328Zm159.69-59.731c-.253-.139-.519-.252-.779-.37l30.447-60.453a8.624,8.624,0,0,0,7.723-15.4l5.895-11.828c.161.068.319.131.479.186A9.052,9.052,0,0,0,607.216,181.4l32.392-23.563a10.153,10.153,0,0,0,2.408,1.764Zm93.012-142.351c-.351.012-.707.052-1.054.1L626.9,51.367a6.4,6.4,0,0,0,1.033-.394,6.5,6.5,0,0,0,2.756-2.767c-.189-2.474-.436-4.949-.708-7.423a6.489,6.489,0,0,0-1.708-1.441,8.913,8.913,0,0,0,2.906-4.218,9.05,9.05,0,0,0-3.494-10.189L643.152-7.231a10.136,10.136,0,0,0,2.4.452Z" transform="translate(-94.349 216.664)"/><g transform="translate(0 49.319)"><path class="d" d="M1052.668,246.028a25.819,25.819,0,1,0,25.818-25.819A25.819,25.819,0,0,0,1052.668,246.028Z" transform="translate(-550.765 -44.143)"/><path class="d" d="M922.206-11.021A25.819,25.819,0,0,0,948.025,14.8a25.819,25.819,0,0,0,25.82-25.819,25.819,25.819,0,0,0-25.82-25.819A25.819,25.819,0,0,0,922.206-11.021Z" transform="translate(-487.609 80.293)"/><path class="d" d="M226.487,654.916A25.819,25.819,0,1,0,252.306,629.1,25.819,25.819,0,0,0,226.487,654.916Z" transform="translate(-150.815 -242.084)"/><path class="d" d="M162.381,80.266A25.819,25.819,0,1,0,188.2,54.447,25.819,25.819,0,0,0,162.381,80.266Z" transform="translate(-119.781 36.101)"/><circle class="d" cx="25.819" cy="25.819" r="25.819" transform="translate(463.852 377.819) rotate(-67.5)"/><circle class="d" cx="25.819" cy="25.819" r="25.819" transform="translate(222.055 43.926) rotate(-58.283)"/><path class="d" d="M79.808,489.078a25.819,25.819,0,1,0,25.819-25.819A25.819,25.819,0,0,0,79.808,489.078Z" transform="translate(-79.808 -161.803)"/></g></g><g class="e" transform="translate(0 132.322)"><path class="a" d="M526.8,4.238a11.479,11.479,0,0,0-1.153-.077l1.343-171.536a11.256,11.256,0,0,0,9.5-9.268,11.3,11.3,0,0,0-9.288-13,11.24,11.24,0,0,0-7.945,1.669L421.334-324.983a11.145,11.145,0,0,0,3.394-6.305,11.3,11.3,0,0,0-9.295-13,11.274,11.274,0,0,0-12.28,6.847l-163.075-54.4a11.282,11.282,0,0,0-9.3-12.809,11.3,11.3,0,0,0-13,9.288,11.11,11.11,0,0,0,.621,5.826L58.279-338.884a11.209,11.209,0,0,0-7.8-5.379,11.307,11.307,0,0,0-13,9.295,11.258,11.258,0,0,0,3.8,10.385L-57.335-191.052a11.164,11.164,0,0,0-4.509-1.841,11.307,11.307,0,0,0-13,9.294,11.3,11.3,0,0,0,9.3,13,10.9,10.9,0,0,0,1.2.078L-65.638-6.435A11.269,11.269,0,0,0-77.055,2.958a11.3,11.3,0,0,0,9.295,13,11.193,11.193,0,0,0,5.542-.517l100.8,141.026A11.29,11.29,0,1,0,56.3,170.245l162.937,54.349c-.075.3-.187.584-.239.9a11.3,11.3,0,1,0,21.762-1.867l162.758-51.487a11.258,11.258,0,1,0,16.767-14.5L518.52,24.628a11.136,11.136,0,0,0,4.576,1.9A11.3,11.3,0,1,0,526.8,4.238ZM415.018,155.2c-.221-.037-.428-.015-.639-.044l1.451-23.612a9.66,9.66,0,0,0,5.632-17.581l22.267-29.318,16.488-21.706c.235.154.5.255.748.384l-43.494,92.6A10.632,10.632,0,0,0,415.018,155.2Zm-13.01,9.292a11.244,11.244,0,0,0-.1,2.454l-44.829-.533a10.075,10.075,0,0,0-1.36-4.434l52.371-34.354a9.7,9.7,0,0,0,6.215,3.822c.16.027.31.007.465.027l-1.452,23.618A11.269,11.269,0,0,0,402.008,164.49ZM231.994,216.2a11.232,11.232,0,0,0-10.769,4.279l-33.116-23.1a10.318,10.318,0,0,0,1.466-6.334l78.239-11.767,38.8,2.938a9.71,9.71,0,0,0,.733,4.666l-67.976,33.982A11.2,11.2,0,0,0,231.994,216.2ZM57.883,165.514a11.274,11.274,0,0,0-9.333-12.352,11.133,11.133,0,0,0-6.809,1.047L28.454,123.348a10.946,10.946,0,0,0,1.428-.814,10.082,10.082,0,0,0,3.188-3.848l15.337,7.957a7.337,7.337,0,0,0,2.11,1.106l72.77,37.786a6.527,6.527,0,0,0-.518,1.625,7.24,7.24,0,0,0-.092,1.05ZM-62.232-5.843l7.308-27.049a10.2,10.2,0,0,0,4.434-.029L-8.193,51.7a9.647,9.647,0,0,0-6.361,3.384L-57.3,12.114a11.237,11.237,0,0,0,2.547-5.445A11.282,11.282,0,0,0-62.232-5.843Zm26.76-146.051,19.234,19.836a9.621,9.621,0,0,0-2.445,4.986,9.685,9.685,0,0,0,4.583,9.895L-48.518-52a10.22,10.22,0,0,0-3.419-.937Zm-19.306-36.7,24.47-20.694a10.407,10.407,0,0,0,2.946,2.138l-8.82,53.008-19.3-19.9a11.194,11.194,0,0,0,2.924-5.844A11.15,11.15,0,0,0-54.778-188.592ZM-14.6-222.168c-.083-.115-.188-.2-.282-.32L29.95-266.625l-17.2,69.364c-.14-.036-.266-.082-.4-.1a7.46,7.46,0,0,0-4.289.56l-.817.46a7.32,7.32,0,0,0-1.727,1.468l-20.071-15.577A10.159,10.159,0,0,0-14.6-222.168ZM107.526-334.619l12.141-1.82a9.646,9.646,0,0,0,5.123,7.221l.443,2.445-17.9-4.836A10.627,10.627,0,0,0,107.526-334.619Zm163.86-15.715a8.815,8.815,0,0,0,.758-.634l14.315,14.746a7.255,7.255,0,0,0-.7,2.07,7.285,7.285,0,0,0,.46,3.942l-79.187,20.279-.937-.385a9.652,9.652,0,0,0-7.422-6.089,9.649,9.649,0,0,0-5.618.745l-54.141-22.2a10.615,10.615,0,0,0-.151-1.457l116.7-17.554a10.145,10.145,0,0,0,1.715,4.17A10.187,10.187,0,0,0,271.386-350.333Zm90.994,25.382a9.646,9.646,0,0,0,9.285-3.741l27.369,18.483a4.474,4.474,0,0,0-.451,1.3,4.456,4.456,0,0,0,.649,3.144l-13.847,6.739-65.658-34.1L354.3-334A9.7,9.7,0,0,0,362.38-324.951Zm97.1,387.3L442.063,85.285l-21.4,28.169a9.571,9.571,0,0,0-13.671,4.615l-6.895-2.516,57.243-56.357A7.593,7.593,0,0,0,459.478,62.352Zm-104.31,98.716c-.187-.252-.405-.46-.6-.7l44.783-44.089,7.327,2.664a10.02,10.02,0,0,0-.361,1.328,9.639,9.639,0,0,0,1.215,6.444Zm-18.358,6.768L267.249,178.3l-129.656-9.812a7.273,7.273,0,0,0-.769-3.417l6.226-3.6,55.73-32.255a7.441,7.441,0,0,0,13.062-1.186l125.067,37.509A10.446,10.446,0,0,0,336.811,167.837ZM173.55,183.721a10.074,10.074,0,0,0-3.649,4.83l-32.957-17.112a7.334,7.334,0,0,0,.582-1.824c.011-.067,0-.126.012-.188l125.52,9.491L189.446,190a10.03,10.03,0,0,0-1.688-3.913A10.176,10.176,0,0,0,173.55,183.721ZM78.353,39.293l-59.062-9.3a9.673,9.673,0,0,0-8.008-10.712A9.945,9.945,0,0,0,9.6,19.163L18.106-55.17a6.278,6.278,0,0,0,.686.184,7.386,7.386,0,0,0,4.9-.914l57.43,87.434a7.5,7.5,0,0,0-2.774,7.758ZM-5.57,51.742a8.7,8.7,0,0,0-1.467-.092L-49.464-33.257a10.318,10.318,0,0,0,2.61-1.289A10.2,10.2,0,0,0-44.489-48.76c-.084-.109-.184-.189-.267-.3L12.8-60.464A7.453,7.453,0,0,0,17.2-55.447L8.827,19.219A9.651,9.651,0,0,0,4.151,36.775L-3.164,52.51A9.735,9.735,0,0,0-5.57,51.742ZM-16.965-207.966a9.694,9.694,0,0,0,1.768-1.639L4.873-194.028a8.619,8.619,0,0,0-.475.84l-.361.871a8.442,8.442,0,0,0-.291,1.1,7.267,7.267,0,0,0,.085,2.841l.281.9A7.474,7.474,0,0,0,8.7-182.917l-15.372,48.09c-.279-.072-.547-.18-.843-.229a9.857,9.857,0,0,0-2.513-.05l-10.806-71.185A9.9,9.9,0,0,0-16.965-207.966Zm34.274,13.808,37.343-26.721a7.455,7.455,0,0,0,4.5,2.65L47.625-113.365a4.469,4.469,0,0,0-1.7.389L14.332-183.234a7.459,7.459,0,0,0,4.164-5.524A7.441,7.441,0,0,0,17.309-194.158ZM46.814-292.3l4.833,2.832-11.191,11-.878-2.262L38-284.811A9.682,9.682,0,0,0,46.814-292.3Zm5.781,3.383,82.7,48.324a7.491,7.491,0,0,0-.735,2.134,7.318,7.318,0,0,0-.057,1.79l-10.25,1.463-56.518,8.093a7.466,7.466,0,0,0-6.077-5.866,7.42,7.42,0,0,0-3.475.278L40.878-277.38Zm50.737-36.533a10.013,10.013,0,0,0,3.731-5.133l18.376,4.965,8.2,45.238,6.512,35.887a7.512,7.512,0,0,0-4.4,3.077L53.293-289.6l37.212-36.642A10.2,10.2,0,0,0,103.332-325.449ZM355.7-283.528l29.54-14.375,23.985,12.458a10.142,10.142,0,0,0,1.346,9.166,9.9,9.9,0,0,0,3.048,2.782l-33.228,61.253a7.176,7.176,0,0,0-2.763-1.062,7.4,7.4,0,0,0-2.9.089l-15.55-42.633-6.329-17.377a7.45,7.45,0,0,0,3.793-5.32A7.393,7.393,0,0,0,355.7-283.528Zm95.877,27.113-23.42-21.762a10.178,10.178,0,0,0,.665-2.127Zm71.41,88.924L501.838-40.412c-.311-.032-.624-.053-.928-.059l-.355-70a7.477,7.477,0,0,0,6.873-6.227,7.172,7.172,0,0,0,.087-1.475l-1.379-1.731a10.158,10.158,0,0,0,.227-12.066,10.112,10.112,0,0,0-2.929-2.7l17.249-33.588A11.548,11.548,0,0,0,522.983-167.491ZM493.8-37.541l-8.134-5.01,11.4-68.534a7.235,7.235,0,0,0,1.748.544c.271.045.533.038.8.057l.361,70.042A9.7,9.7,0,0,0,493.8-37.541ZM198.308,128.4,146.794,158.21l-10.435,6.046a7.481,7.481,0,0,0-3.09-2.643L173.2,57.95l3.745-9.713a7.988,7.988,0,0,0,1,.269,7.375,7.375,0,0,0,2.977-.107l21.437,69.709a7.411,7.411,0,0,0-4.05,10.29Zm-65.8-193.277L80.659-51.765a7.444,7.444,0,0,0-5.871-5.09,7.341,7.341,0,0,0-3.8.388L49.577-104.8a4.367,4.367,0,0,0,1.623-1.264l82,37.188a7.334,7.334,0,0,0-.661,1.994A7.439,7.439,0,0,0,132.506-64.881ZM24.248-68.508,35.73-87.662,46-104.776a4.561,4.561,0,0,0,1.019.309,4.282,4.282,0,0,0,1.656-.048L68.908-58.84l1.216,2.75a7.436,7.436,0,0,0-3.674,4.414l-39.07-9.4c0-.018.007-.043.011-.068A7.457,7.457,0,0,0,24.248-68.508ZM-.962-120.226l16.641,4.651L19-69.748a7.863,7.863,0,0,0-1.766.48L-6.116-116.293A9.682,9.682,0,0,0-.962-120.226Zm22.21,50.477a8.093,8.093,0,0,0-1.3-.09l-3.3-45.462L43.4-107.813a4.47,4.47,0,0,0,1.783,2.578L23.428-68.987A7.058,7.058,0,0,0,21.248-69.749ZM67.867-226.184l57.076-8.165,9.693-1.391a7.443,7.443,0,0,0,6.067,5.888,7.257,7.257,0,0,0,1.184.077l3.434,62.467,1.344,24.489a7.459,7.459,0,0,0-3.944,1.727L65.949-220.558a7.42,7.42,0,0,0,1.863-3.809A7.453,7.453,0,0,0,67.867-226.184ZM246.24-286.657a6.485,6.485,0,0,0,7.242-4.486L315.2-279.777a7.528,7.528,0,0,0-.03,1.478l-51.156,7.357-19.984,2.879a7.476,7.476,0,0,0-3.314-6.134l5.265-12.527C246.072-286.711,246.154-286.672,246.24-286.657Zm-2.291,19.9c.02-.117.007-.233.021-.352L315.3-277.366a7.3,7.3,0,0,0,1.4,3.021l-1.317,1.137L221.308-190.9a7.37,7.37,0,0,0-3.288-1.454c-.044-.007-.089,0-.138-.01l15.449-58.489,2.573-9.712A7.451,7.451,0,0,0,243.949-266.754Zm180.1-6.745,18.631,37.29-59.754,26.7a7.471,7.471,0,0,0-1.783-2.16l33.286-61.408A10.2,10.2,0,0,0,424.048-273.5Zm34.506,30.2-14.9,6.659-18.7-37.428a10.264,10.264,0,0,0,2.736-3.113l31.554,29.288a5.03,5.03,0,0,0-.911,2.123A5,5,0,0,0,458.554-243.3Zm25.485,58.254-13.452,2.318-6.288-12.6,18.907,2.227a9.688,9.688,0,0,0-.447,1.656A9.289,9.289,0,0,0,484.039-185.042Zm-14.534,2.5-25.649,4.427a9.68,9.68,0,0,0,.748-2.365,9.709,9.709,0,0,0-7.977-11.17,9.71,9.71,0,0,0-11.17,7.984,9.653,9.653,0,0,0,2.584,8.275l-27.61,4.754a7.48,7.48,0,0,0-6.051-5.646,7.324,7.324,0,0,0-3.778.386l-10.209-23.233-.167-.4a7.447,7.447,0,0,0,3.547-5.17c.008-.043,0-.094.01-.138l79.254,9.372Zm23.885,67.981L435.7-80.726a7.456,7.456,0,0,0-4.967-3.209,7.434,7.434,0,0,0-3.515.29l-30.9-78.488a7.429,7.429,0,0,0,3.337-3.146l88.762,42.336a10.039,10.039,0,0,0,1.364,2.813,9.927,9.927,0,0,0,2.821,2.624A7.513,7.513,0,0,0,493.39-114.562ZM460.58,44.119a10.124,10.124,0,0,0,1.085,4.141l.361,1.372a7.422,7.422,0,0,0-3.856,2.914L344.116-14.17a7.56,7.56,0,0,0,.727-2.122,7.436,7.436,0,0,0-.874-4.841l79.513-50.992a7.457,7.457,0,0,0,4.794,2.952,7.3,7.3,0,0,0,2.665-.057L458.967,37.932ZM311.932-115.42,270.487-72.88a7.382,7.382,0,0,0-3.16-1.349,7.382,7.382,0,0,0-3.218.187l-8.467-19.572L219.165-177.9a7.519,7.519,0,0,0,3.331-2.273L309.839-124.7l1.089.694a7.208,7.208,0,0,0-.848,2.356A7.438,7.438,0,0,0,311.932-115.42ZM263.215-73.74a7.545,7.545,0,0,0-2.765,2.03L243.773-81.2l-89.534-50.95a7.662,7.662,0,0,0,.676-2.042,7.421,7.421,0,0,0-1.093-5.239l56.694-41.519a7.428,7.428,0,0,0,5.049,3.362,7.617,7.617,0,0,0,2.69-.059ZM153.789-131.315l43.687,24.843L259.87-70.965a7.436,7.436,0,0,0-1.1,2.726L147.265-66.861a7.442,7.442,0,0,0-6.042-6.151l5.989-54.968A7.451,7.451,0,0,0,153.789-131.315ZM147.3-64.428a7.326,7.326,0,0,0,.09-1.493L258.671-67.3a7.433,7.433,0,0,0,2.057,5.615l-62.371,78.04-14.9,18.655a7.206,7.206,0,0,0-6.379-1.043L165.646,2.631,143.2-58.951A7.461,7.461,0,0,0,147.3-64.428Zm51.87,81.281,62.259-77.9a7.391,7.391,0,0,0,3.445,1.575,7.467,7.467,0,0,0,7.582-3.441L317.5-31.051l13.6,9.609a7.366,7.366,0,0,0-1.019,2.695,7.5,7.5,0,0,0,.232,3.372L258.641,11.19,186,38.091a7.485,7.485,0,0,0-1.808-2.5ZM318.213-31.706,272.88-63.761a7.349,7.349,0,0,0,.6-1.858,7.473,7.473,0,0,0-2.249-6.674L312.6-114.759a7.442,7.442,0,0,0,3.63,1.719,7.151,7.151,0,0,0,1.576.085l17.191,88.413a7.411,7.411,0,0,0-3.325,2.349Zm1.124-81.481a7.492,7.492,0,0,0,4.8-3.96l98.236,38.456a6.4,6.4,0,0,0-.253.909,7.436,7.436,0,0,0,.659,4.463L343.2-22.27A7.421,7.421,0,0,0,338.69-24.9,7.3,7.3,0,0,0,336.5-24.9Zm4.624-10.847,63.164-40.447a7.468,7.468,0,0,0,4.8,2.959,7.4,7.4,0,0,0,3.522-.289l30.9,78.488a7.488,7.488,0,0,0-3.588,3.624l-98.2-38.457a8.5,8.5,0,0,0,.276-1.044A7.36,7.36,0,0,0,323.961-124.034Zm168.188-10.3a10.157,10.157,0,0,0-4.053,10.194l-23.668-11.29-64.338-30.68a8.089,8.089,0,0,0,.438-1.568,7.5,7.5,0,0,0,.031-2.016l28.355-4.89a9.657,9.657,0,0,0,4.527,2.084,9.688,9.688,0,0,0,9.886-4.572l26.612-4.584,23.323,46.683A10.793,10.793,0,0,0,492.149-134.338ZM383.833-205.79a7.3,7.3,0,0,0-.505-2.867l59.78-26.7,19.425,38.878Zm-4.438,6.714,10.335,23.545a7.462,7.462,0,0,0-3.952,5.394,7.391,7.391,0,0,0,.86,4.845l-35.21,22.551-27.947,17.9a7.421,7.421,0,0,0-1.41-1.426l50.66-73.163a7.361,7.361,0,0,0,2.437.887A7.441,7.441,0,0,0,379.4-199.076Zm-58.087,72.25a7.6,7.6,0,0,0-2.625-.981,7.448,7.448,0,0,0-7.255,3l-1.318-.84-87.026-55.28a7.527,7.527,0,0,0,1.089-2.816,7.531,7.531,0,0,0,.014-2.1l34.025-4.421,110.84-14.4a7.446,7.446,0,0,0,2.9,4.715Zm47.709-80.333a7.147,7.147,0,0,0-.09,1.569l-134.96,17.532-9.911,1.285a7.59,7.59,0,0,0-2.008-3.51l26.258-22.982,69-60.364a7.4,7.4,0,0,0,4.065,2.115,7.452,7.452,0,0,0,5.3-1.127L371.923-211.9A7.437,7.437,0,0,0,369.017-207.16ZM232.171-250.126l-15.241,57.7a7.464,7.464,0,0,0-6.285,3.226l-62.336-44.124A7.529,7.529,0,0,0,149.318-236a7.422,7.422,0,0,0-.116-3l81.064-25.01a7.425,7.425,0,0,0,4.69,3.309Zm-21.992,61.747a7.362,7.362,0,0,0-.762,2.18,7.469,7.469,0,0,0,.62,4.425l-29.409,21.545-27.365,20.036a7.425,7.425,0,0,0-4.49-2.61,6.911,6.911,0,0,0-1.16-.073l-4.789-86.964a7.378,7.378,0,0,0,4.921-2.73Zm-68.153,47.926a7.454,7.454,0,0,0-1.856,3.8,7.49,7.49,0,0,0,.072,2.73L52.1-109.972a4.478,4.478,0,0,0-3.537-3.313L60.086-218.15a7.428,7.428,0,0,0,5.173-1.769ZM84.194-92.134,51.72-106.86a4.433,4.433,0,0,0,.45-1.294,4.54,4.54,0,0,0,.057-.878l44.822-12.175L140.5-133.012a7.424,7.424,0,0,0,5.764,4.964l-5.915,54.4-.066.552a7.45,7.45,0,0,0-6.647,3.381Zm54.494,33.865a7.346,7.346,0,0,0,3.637-.339L164.989,3.567l11.184,30.708A7.453,7.453,0,0,0,171.8,39.9c-.026.154-.007.309-.027.464L93.086,37.32a7.47,7.47,0,0,0-3.588-6.2l22.7-43.309,24.5-46.742A7.411,7.411,0,0,0,138.687-58.269Zm-45.7,96.993c.024-.148.013-.309.032-.464L171.709,41.3a7.472,7.472,0,0,0,4.352,6.6L162.273,83.687,132.38,161.275a7.87,7.87,0,0,0-1-.274,7.3,7.3,0,0,0-3.187.185L107.339,99.9,88.46,44.4A7.461,7.461,0,0,0,92.992,38.724ZM181.807,48.1a7.46,7.46,0,0,0,4.317-4.232L307.886,83.143c-.049.214-.124.4-.159.614a7.339,7.339,0,0,0,.226,3.326l-96.118,35.01a7.446,7.446,0,0,0-8.589-4.294ZM308.143,82.248l-53.208-17.18L186.384,42.952c.052-.2.134-.39.169-.6a7.458,7.458,0,0,0-.237-3.372L330.633-14.487a7.435,7.435,0,0,0,4.789,4.13l-5.427,24.883L316.237,77.594A7.492,7.492,0,0,0,308.143,82.248Zm22.808-67.721,5.381-24.644a7.489,7.489,0,0,0,7.324-3.229L457.71,53.369a6.746,6.746,0,0,0-.735,4.263l-134.632,25.5a7.464,7.464,0,0,0-5.2-5.308Zm-9.027,73.449,76.329,27.9-44.389,43.7a10.192,10.192,0,0,0-10-2.215l-24.413-66.3A7.392,7.392,0,0,0,321.924,87.976ZM365.743,103l-43.5-15.914a8.768,8.768,0,0,0,.234-.873,7.669,7.669,0,0,0,.015-2.146L456.308,58.707,398.99,115.14ZM464.83,35.447a10.1,10.1,0,0,0-3.967,6.019l-4.3-16.426-24.717-94.52a7.475,7.475,0,0,0,3.75-2.773l13.583,8.363,12.545,7.714A9.673,9.673,0,0,0,469.75-45.8,9.645,9.645,0,0,0,476.4-47.14l8.117,4.995L471.91,33.647A10.091,10.091,0,0,0,464.83,35.447Zm12.432-83.168a9.633,9.633,0,0,0,3.657-6.058,9.713,9.713,0,0,0-7.983-11.17,9.688,9.688,0,0,0-11.1,7.735l-17.23-10.6-8.531-5.247a7.126,7.126,0,0,0,.808-2.267,7.367,7.367,0,0,0-.72-4.582l28.672-16.814,29.019-17.029a7.471,7.471,0,0,0,2.221,2.151L484.689-43.151Zm16.949-87.732-23.181-46.392,13.584-2.341a9.283,9.283,0,0,0,5.84,3.519,9.49,9.49,0,0,0,2.095.1l5.215,44.373A10.365,10.365,0,0,0,494.21-135.453Zm-10.6-58.532L463.8-196.332,444.08-235.792l14.862-6.64a5.038,5.038,0,0,0,3.583,2.541,5.042,5.042,0,0,0,2.753-.321l21.956,42.291A9.3,9.3,0,0,0,483.613-193.985Zm-69.645-97.091-7.975-13.2,11.459,12.028A9.989,9.989,0,0,0,413.968-291.076Zm-14.133-13.93a4.46,4.46,0,0,0,2.437,1.273,4.477,4.477,0,0,0,2.6-.341l8.181,13.522c-.035.026-.076.038-.119.069a9.958,9.958,0,0,0-3.29,4.047l-23.217-12.051Zm-38.647,57.411,12.641,34.671a7.812,7.812,0,0,0-1.1.514l-5.362-7.2L327.422-273.22a7.414,7.414,0,0,0,2.559-4.448,6.942,6.942,0,0,0,.08-1.355l1.264-.1a9.69,9.69,0,0,0,7.294,5.68,9.63,9.63,0,0,0,5.667-.774,7.3,7.3,0,0,0,3.758,1.836,7.4,7.4,0,0,0,3.939-.441Zm-30.553-37.011a9.673,9.673,0,0,0,.375,4.562l-1.034.081a7.462,7.462,0,0,0-6.148-6.315,7.443,7.443,0,0,0-4.384.6l-9.9-18.136-12.435-22.8a8.074,8.074,0,0,0,1.18-.919l38.542,35.469A9.673,9.673,0,0,0,330.634-284.606Zm-12.011-.6a7.453,7.453,0,0,0-3.24,4.505L259.43-291.01l-5.712-1.052a6.427,6.427,0,0,0-.855-4.311l35.014-31.235a7.436,7.436,0,0,0,4.028,2.071,7.5,7.5,0,0,0,4.391-.607Zm-31.356-43.121-34.941,31.177a6.43,6.43,0,0,0-3.954-2.325,6.485,6.485,0,0,0-6.926,3.651l-32.765-13.431,78-19.981A7.939,7.939,0,0,0,287.268-328.324Zm-46.151,33.381a5.44,5.44,0,0,0-.224.811,6.5,6.5,0,0,0,4.183,7.16l-5.18,12.319a7.5,7.5,0,0,0-2.093-.716,7.461,7.461,0,0,0-7.65,3.582l-13.162-8.908-49.649-33.616,20.28,5.478c-.03.141-.09.27-.113.412a9.7,9.7,0,0,0,7.979,11.163,9.7,9.7,0,0,0,11.162-7.978,9.577,9.577,0,0,0-.08-3.48l.589-.149Zm-53.223-14.914-23.258-6.278-26.479-17.923a9.336,9.336,0,0,0,.648-2.142c.037-.222.016-.441.04-.665l53.18,21.8A9.661,9.661,0,0,0,187.894-309.858ZM137.736-333.21l24.111,16.318L126.24-326.5l-.4-2.2a10,10,0,0,0,1.8.483A9.681,9.681,0,0,0,137.736-333.21Zm26.816,18.15,65.175,44.122a7.336,7.336,0,0,0-.534,1.73,7.47,7.47,0,0,0,.586,4.357L148.9-239.895a7.44,7.44,0,0,0-5.737-4.719,7.256,7.256,0,0,0-2.075-.022l-10.546-58.111-4.093-22.6ZM45.111-112.5a4.448,4.448,0,0,0-1.778,2.879,4.036,4.036,0,0,0-.043.677l-26.728-7.482L13.15-163.563l-1.384-18.989a7.014,7.014,0,0,0,1.682-.36ZM12.1-165l3.5,48.308-16.052-4.5a9.755,9.755,0,0,0,.911-2.7,9.689,9.689,0,0,0-6.111-10.655l15.373-48.1c.061.01.115.032.17.041a7.612,7.612,0,0,0,.934.06Zm-22.809,49.1A9.736,9.736,0,0,0-7.16-116L16.293-68.8a7.548,7.548,0,0,0-2.408,2.172l-.473.822a7.23,7.23,0,0,0-.78,2.209,7.494,7.494,0,0,0,0,2.217L-45.494-49.878a10.239,10.239,0,0,0-2.074-1.663L-13.146-116.7A9.5,9.5,0,0,0-10.706-115.9Zm35.2,59.508a7.425,7.425,0,0,0,2.631-3.777l39.076,9.4c0,.03-.019.041-.022.06a7.489,7.489,0,0,0,6.152,8.615,7.627,7.627,0,0,0,1.795.065L77.8-15.465l6.327,45.648a7.723,7.723,0,0,0-2.2.851ZM79.986-6.553,75.048-42.159a7.472,7.472,0,0,0,5.894-6.092,7.77,7.77,0,0,0-.043-2.6l20.555-5.2,31.181-7.9a7.5,7.5,0,0,0,3.218,4.578l-24.263,46.3L88.649,30.695a7.117,7.117,0,0,0-1.806-.573,7.6,7.6,0,0,0-1.789-.063Zm3.4,51.163a6.291,6.291,0,0,0,1,.274,7.365,7.365,0,0,0,3.179-.175l18.993,55.8L127.3,161.488a7.369,7.369,0,0,0-3.307,2.694L58.7,125.231a7.407,7.407,0,0,0-2.108-11.061ZM58.065,125.956l58.7,35-63.3-32.871A7.458,7.458,0,0,0,58.065,125.956Zm154.078,1.175c.071-.273.177-.528.226-.824a7.421,7.421,0,0,0-.226-3.326l96.111-35a7.464,7.464,0,0,0,5.62,4.389,7.375,7.375,0,0,0,4.77-.828l24.35,66.144a10.456,10.456,0,0,0-1.986,1.082,10.011,10.011,0,0,0-3.928,5.9Zm260.814-93.3L485.5-41.539l7.7,4.736a9.566,9.566,0,0,0-2,4.413,9.681,9.681,0,0,0,4.59,9.9L473.066,33.859C473.024,33.851,472.987,33.839,472.957,33.834Zm46.778-202.563L502.51-135.207a10.193,10.193,0,0,0-3.675-.96l-5.229-44.552a9.328,9.328,0,0,0,7.623-7.648,9.363,9.363,0,0,0-7.7-10.774,9.374,9.374,0,0,0-5.4.7l-21.915-42.272c.051-.036.112-.064.163-.106l50.917,54.48a11.119,11.119,0,0,0-3.092,5.981A11.293,11.293,0,0,0,519.735-168.729ZM460.2-248.909l-31.227-32.776a10.058,10.058,0,0,0-1.831-6.439,10.151,10.151,0,0,0-8.343-4.246l-12.333-12.946a4.481,4.481,0,0,0,.979-2.119,4.479,4.479,0,0,0-2.414-4.724l3.913-10.724a11.372,11.372,0,0,0,2.78.887,11.153,11.153,0,0,0,7.105-1.189l43.223,73.334A5.061,5.061,0,0,0,460.2-248.909Zm-52.208-74.455-3.952,10.845c-.1-.023-.193-.064-.291-.08a4.5,4.5,0,0,0-3.423.844l-.291-.308.223.373a4.042,4.042,0,0,0-.631.592l-27.341-18.459a9.639,9.639,0,0,0,1.259-3.377,9.364,9.364,0,0,0,.057-2.437l28.725,1.985A11.249,11.249,0,0,0,407.991-323.364ZM384.2-298.45l-29.018,14.126a7.443,7.443,0,0,0-4.682-2.826,7.218,7.218,0,0,0-1.577-.085,9.68,9.68,0,0,0-7.119-5.354,9.69,9.69,0,0,0-3.964.17L298.92-328.236a7.467,7.467,0,0,0,1.59-3.461,6.623,6.623,0,0,0,.055-.942l16.972-.427Zm-83.642-35.135a7.461,7.461,0,0,0-6.2-6.715,7.446,7.446,0,0,0-7.35,3.118L272.907-351.7a10.267,10.267,0,0,0,2.125-3.442l40.774,21.176ZM89.2-327.731c.189.241.4.46.6.684L52.339-290.156,47-293.275a9.635,9.635,0,0,0-1.238-6.043ZM35.812-284.909a9.2,9.2,0,0,0,1.172.074l1.57,4.083,1.178,3.01-7.851,7.731,3.706-14.961C35.669-284.958,35.738-284.921,35.812-284.909Zm4.332,8.243L57.3-232.385a7.477,7.477,0,0,0-2.9,2.439l-.5.8a7.312,7.312,0,0,0-.843,2.325,7.468,7.468,0,0,0,1.059,5.176l-37.38,26.759a7.511,7.511,0,0,0-2.963-2.077L31.39-268.046Zm-66.5,69.982a10.194,10.194,0,0,0,4.464.552l10.807,71.173a9.563,9.563,0,0,0-4.356,2.184L-35.255-153.2ZM-2.211,52.992,5.066,37.332A9.525,9.525,0,0,0,8.1,38.42a9.693,9.693,0,0,0,11.091-7.692l59.48,9.454a7.459,7.459,0,0,0,3.838,4.092L55.742,113.751a7.188,7.188,0,0,0-1.671-.506,7.466,7.466,0,0,0-7.943,4.166l-.364.89a7.369,7.369,0,0,0-.3,1.1,7.655,7.655,0,0,0-.032,1.985l.133.953a7.42,7.42,0,0,0,.83,2.058l-12.869-6.679a10.162,10.162,0,0,0-13.879-12.683l-19-38.029a9.7,9.7,0,0,0,1.759-4.1A9.69,9.69,0,0,0-2.211,52.992ZM136.469,172.38l33.149,17.227a10.647,10.647,0,0,0-.264,1.927l-32.934-19.086Zm48.924,27.913a10.037,10.037,0,0,0,2.109-2.045l31.978,22.317-34.542-20.012C185.088,200.457,185.244,200.394,185.394,200.293Zm132.438-26.824a9.692,9.692,0,0,0-11.121,7.807l-34.716-2.626,64.946-9.764a10.365,10.365,0,0,0,.888,2.664l-13.221,6.672A9.649,9.649,0,0,0,317.831,173.469ZM479.038,37.812a10.007,10.007,0,0,0-5.068-3.669l22.668-56.211a9.7,9.7,0,0,0,2.546.842,9.686,9.686,0,0,0,5.618-.745L519.264,5.645a11.247,11.247,0,0,0-5.451,7.889,11.1,11.1,0,0,0,1.434,7.532L480,39.506A10.451,10.451,0,0,0,479.038,37.812Zm45.554-33.72a11.342,11.342,0,0,0-4.382,1.083L505.716-22.5a9.637,9.637,0,0,0,4.626-6.7,9.7,9.7,0,0,0-4.31-9.748l.8-.995c.021-.123.047-.246.067-.369.082-.493.146-.989.228-1.483l-1.946,2.4a9.91,9.91,0,0,0-2.294-.839L524.028-167.3a11.177,11.177,0,0,0,1.9.07ZM420.54-324.286l97.853,136.924c-.11.089-.2.2-.315.3l-50.92-54.468a5.064,5.064,0,0,0,1.237-2.557,5.106,5.106,0,0,0-4.194-5.869,5.51,5.51,0,0,0-1.028-.07l-43.424-73.691C420.014-323.905,420.286-324.087,420.54-324.286Zm-17.72-12.144a11.433,11.433,0,0,0-.384,1.432c-.032.19-.016.365-.035.552l-28.945-2a9.682,9.682,0,0,0-7.889-7.656,9.714,9.714,0,0,0-11.171,7.983,9.265,9.265,0,0,0-.076,1.178l-36.32.922L275.309-356.2a10.109,10.109,0,0,0-1.558-8.345,10.187,10.187,0,0,0-14.207-2.364c-.274.2-.526.419-.778.637L238.3-387.341a11.221,11.221,0,0,0,1.539-3.457Zm-184.027-52.11a11.266,11.266,0,0,0,8.274,6.186,11.154,11.154,0,0,0,10.6-4.118l20.343,20.946a10.2,10.2,0,0,0-2.673,7.61L138.558-340.361a9.683,9.683,0,0,0-7.737-7.01,9.709,9.709,0,0,0-11.165,7.984,10.417,10.417,0,0,0-.131,1.892l-12.13,1.828a10.138,10.138,0,0,0-1.694-3.989,10.19,10.19,0,0,0-14.22-2.366,10.116,10.116,0,0,0-4.208,7.88l-27.41.351a11.182,11.182,0,0,0-1.034-4.146ZM42.114-323.924a11.179,11.179,0,0,0,4.655,1.959,11.3,11.3,0,0,0,13-9.294,10.477,10.477,0,0,0,.124-1.469l27.377-.35a10.228,10.228,0,0,0,1.372,4.436L45.211-300.221A9.646,9.646,0,0,0,39-304.056a9.711,9.711,0,0,0-11.176,7.982,9.686,9.686,0,0,0,6.746,10.832L30.437-268.6l-46.019,45.309a10.16,10.16,0,0,0-13.227-1.25,10.187,10.187,0,0,0-2.364,14.208c.054.091.126.154.183.233l-24.463,20.689A11.653,11.653,0,0,0-56.5-190.4ZM-63.292-170.446a11.322,11.322,0,0,0,7.062-2.83L-36.4-152.84-53.007-53.022a10.134,10.134,0,0,0-5.69,1.9A10.2,10.2,0,0,0-61.061-36.91a10.118,10.118,0,0,0,5.121,3.729L-63.252-6.113c-.273-.072-.522-.176-.8-.222-.172-.029-.347-.014-.52-.036ZM39.379,155.762-61.175,15.075a11.4,11.4,0,0,0,3.151-2.181l42.81,43.03a9.673,9.673,0,0,0-1.526,3.8A9.709,9.709,0,0,0-8.756,70.889,9.714,9.714,0,0,0-.077,67.935l18.8,37.622c-.233.145-.478.243-.694.4a10.166,10.166,0,0,0,9.446,17.808L40.81,154.74A11.123,11.123,0,0,0,39.379,155.762Zm17.4,13.523a11.835,11.835,0,0,0,.958-2.711l64.989,2.7a7.5,7.5,0,0,0,3.244,5.3c1,.4,2.006.816,3.019,1.2a7.416,7.416,0,0,0,6.768-2.473l33.648,19.477a9.861,9.861,0,0,0,1.779,5.15,10.165,10.165,0,0,0,12.688,3.233l36.276,21.017a11.553,11.553,0,0,0-.636,1.383ZM240.4,222.627c-.135-.295-.3-.575-.453-.855l67.9-33.944a9.671,9.671,0,0,0,17.266-8.667l13.229-6.684c.1.168.2.331.306.488a10.152,10.152,0,0,0,18.423-5.49l44.919.529a11.38,11.38,0,0,0,.982,3.2Zm179.05-65.64c-.324-.225-.67-.428-1.012-.618l43.5-92.612a7.181,7.181,0,0,0,1.193.338,7.288,7.288,0,0,0,4.333-.641c1.488-2.35,2.924-4.742,4.339-7.149a7.263,7.263,0,0,0-.57-2.44,10,10,0,0,0,5.44-1.845,10.15,10.15,0,0,0,3.688-11.5l35.465-18.554a11.284,11.284,0,0,0,1.851,2.012Z" transform="translate(95.403 404.8)"/><g transform="translate(0 27.457)"><circle class="a" cx="28.956" cy="28.956" r="28.956" transform="matrix(0.267, -0.964, 0.964, 0.267, 528.647, 442.919)"/><circle class="a" cx="28.956" cy="28.956" r="28.956" transform="translate(553.151 269.169) rotate(-60.276)"/><path class="a" d="M-89.008,366.774A28.956,28.956,0,0,0-83.1,407.3a28.957,28.957,0,0,0,40.522-5.907,28.957,28.957,0,0,0-5.906-40.522A28.957,28.957,0,0,0-89.008,366.774Z" transform="translate(105.438 -57.404)"/><circle class="a" cx="28.956" cy="28.956" r="28.956" transform="translate(170.682 53.328) rotate(-67.049)"/><path class="a" d="M819.993,884.343a28.956,28.956,0,1,0,40.522-5.907A28.955,28.955,0,0,0,819.993,884.343Z" transform="translate(-414.595 -353.502)"/><path class="a" d="M830.032-181.448a28.955,28.955,0,0,0,5.907,40.521,28.955,28.955,0,0,0,40.521-5.906,28.956,28.956,0,0,0-5.907-40.522A28.956,28.956,0,0,0,830.032-181.448Z" transform="translate(-420.338 256.23)"/><path class="a" d="M-113.982,68.462a28.956,28.956,0,0,0,5.907,40.522,28.956,28.956,0,0,0,40.522-5.907A28.956,28.956,0,0,0-73.46,62.555,28.956,28.956,0,0,0-113.982,68.462Z" transform="translate(119.725 113.258)"/></g></g></g></g></g></svg>
