<?xml version="1.0" standalone="yes"?>
<svg width="795" height="780">
<path style="fill:#ffffff; stroke:none;" d="M0 0L0 370L1 370C1 337.542 8.60286 303.67 18.7948 273C70.1166 118.558 217.3 1 383 1L349 0L271 0L0 0z"/>
<path style="fill:#eee0b3; stroke:none;" d="M383 0L383 1L429 1C417.061 -4.00983 396.003 0 383 0z"/>
<path style="fill:#ffffff; stroke:none;" d="M429 0L429 1C473.233 1.36609 518.846 14.4018 559 32.1396C665.628 79.2417 751.343 171.969 780.701 286C787.33 311.751 794 338.172 794 365L795 365L795 0L429 0z"/>
<path style="fill:#edd074; stroke:none;" d="M340 4L340 5L342 5C329.293 9.30157 315.064 10.4335 302 13.8843C280.358 19.6011 259.308 27.9838 239 37.3087C147.046 79.5314 74.7155 161.543 40.0532 256C-22.0138 425.137 45.9714 620.079 197 717.308C230.242 738.708 267.777 755.066 306 765.116C360.918 779.555 420.165 781.52 476 771.384C526.614 762.197 575.762 742.658 618.911 714.551C740.321 635.463 810.466 487.097 792.714 343C787.45 300.271 774.097 260.685 755.637 222C743.459 196.479 730.886 172.399 713.338 150C650.459 69.7393 556.258 15.5586 455 3.28552C416.321 -1.40259 378.555 3.20422 340 4z"/>
<path style="fill:#cfac58; stroke:none;" d="M266 23L266 24L291 17.4244L342 6C334.276 2.75873 324.676 6.7384 317 8.5C299.418 12.5347 282.505 15.2703 266 23z"/>
<path style="fill:#faedca; stroke:none;" d="M469 5L469 6L478 7L469 5z"/>
<path style="fill:#decda1; stroke:none;" d="M314 8L314 9L318 9L314 8z"/>
<path style="fill:#f7e7b4; stroke:none;" d="M489 9L489 10L497 11L489 9z"/>
<path style="fill:#d3b05c; stroke:none;" d="M175 91L175 92L183 88L169 108L169 109L170 111C178.252 107.22 185.603 99.7648 193 94.4244C205.464 85.4261 218.556 77.3179 232 69.8611C279.389 43.5762 337.528 26.0062 392 26L392 25L375 17L375 16L421 14C415.538 11.7078 407.887 13 402 13C387.08 13 372.796 14.0687 358 15.8449C290.419 23.9577 229.909 51.558 175 91z"/>
<path style="fill:#c79b30; stroke:none;" d="M375 16L375 17C380.945 18.5255 384.974 24.056 391.04 25.3696C404.521 28.2888 420.199 26.1443 434 27.0895C457.334 28.6874 480.493 33.1682 503 39.4244C526.182 45.8683 548.377 54.5056 570 65.0278C580.059 69.9229 589.533 77.168 600 81L583 66C621.433 83.9646 656.769 116.209 684.13 148C807.655 291.522 801.423 518.221 664.985 651.961C617.721 698.291 560.614 730.096 497 747.575C399.031 774.492 291.988 754.95 207 700.565C182.188 684.687 157.798 665.125 138.285 643C131.889 635.748 125.444 628.554 119.4 621C117.084 618.106 114.367 613.019 110.739 611.657C108.484 610.81 105.392 612.085 103 612L105 610C103.067 607.97 97.959 606.062 99.5062 611.059C104.952 628.645 123.369 645.364 136 658C172.221 694.235 214.775 722.759 262 742.576C305.246 760.723 352.216 770 399 770C478.329 770 555.095 749.399 621 703.975C657.26 678.983 688.966 647.831 714.573 612C812.081 475.555 807.086 282.999 700.576 153C665.596 110.307 622.266 76.3862 573 51.7531C529.875 30.1908 482.054 17.3803 434 14.0895C414.17 12.7314 394.636 15.5947 375 16z"/>
<path style="fill:#dabb69; stroke:none;" d="M197 52L197 53L212 51.7562L270 25L270 24L266 24L266 23L275 20L254 25.3796L197 52z"/>
<path style="fill:#ebc759; stroke:none;" d="M381 26L381 27L411 27L411 31L415 31C419.362 47.2244 427.817 61.4521 430.741 78.0895C434.888 101.686 428.696 126.541 423.46 149.004C421.017 159.482 419.635 179.808 411 187L411 189L418 190C412.571 202.182 391.106 201.237 389 215L390 215C401.562 197.599 427.395 196 446 196L446 192L418 187L418 185C425.789 184.665 433.272 180.519 441 180.519C463.46 180.519 495.776 200.549 505 221L509 221C509 205.744 506.928 193.591 503 179C516.729 186.79 522.598 210.184 527.639 223.985C529.608 229.378 532.622 234.17 533 240C537.124 239.853 544.84 246.31 546 250C552.396 249.01 555.984 243.019 562.09 240.975C582.341 234.194 620.23 230.345 634 251L622 249L632 265C626.888 264.596 620.159 262.491 615.343 265.089C609.267 268.368 604.626 284.072 600.312 290.039C596.618 295.15 588.866 299.527 587.488 305.961C586.163 312.141 593.098 325.803 595.026 332.09C599.766 347.542 603.074 363.989 604.871 380C606.759 396.813 606.414 417.441 602.545 433.83C599.424 447.051 593.151 462.475 593 476L616 491C608.1 498.616 595.235 498 585 498L590.522 516.015L591 538L572 526C572.013 542.208 573.04 559.418 558 571C557.977 562.669 557.239 551.333 547 551C541.798 566.6 532.522 574.71 518 581L528 559L515 565C515.232 571.5 497.623 579.818 492 580.833C466.477 585.442 441.563 595 415 595L415 598L365 599C363.497 622.113 345.081 643.546 345 667L341 667L335 691L331 691L323 707L319 707L303 735L293 740L293 741C303.445 743.632 313.313 748.215 324 750.576C361.815 758.928 401.407 761.503 440 757.83C580.231 744.485 717.001 644.216 755 505L754 505C742.672 526.493 735.909 549.854 723.397 571C691.125 625.542 645.909 671.556 591 703.424C574.562 712.965 556.358 723.714 538 729C546.805 721.76 557.586 716.607 567 710.116C583.927 698.444 599.758 685.622 615 671.83C662.456 628.891 698.323 570.53 718.485 510C757.243 393.633 740.759 264.138 672.667 162C654.02 134.03 630.773 102.114 603 82.5486C538.881 37.3788 457.072 26 381 26z"/>
<path style="fill:#efd581; stroke:none;" d="M225 79C211.195 79.4189 202.997 103.253 193 111L193 112L193 113L195 115L191 115C187.816 129.032 175.227 142.899 169.455 156.31C154.926 190.073 141.05 223.624 128.255 258C122.892 272.407 113.002 287.412 113 303L109 303C108.822 318.936 96.3474 339.187 90.2631 354.089C79.9026 379.464 72.353 406.198 65.4599 432.289C64.1252 437.341 65.6402 442.791 64.7407 447.91C62.3756 461.374 58.7308 474.85 61.2593 488.83C63.2676 499.935 69.7061 514.032 69 525L87.3835 556.653L111.475 578.29L129 587L130 587L131 587L131 585L132 585L133 585L133 587L134 587L135 587L135 585L136 585L137 585C139.16 587.538 144.514 589.816 147 587L148 587L149 587L149 589L150 589L151 589L159 585L160 585L161 585L161 587L162 587L163 587C169.272 581.671 178.106 578.794 184.999 574.11C193.805 568.125 203.763 557.048 209.71 548.232C212.453 544.165 218.34 539.135 218.222 533.711C218.136 529.706 212.97 524.538 211 521L210 521L211 525C204.876 528.19 194.832 540.411 193 547L189 547C186.826 554.541 177.338 560.573 170.6 563.999C147.61 575.691 117.031 567.35 100.019 548.652C67.3355 512.732 69.712 455.514 84.2716 412.561C87.6657 402.548 88.4917 387.57 95 379L95 378L95 377L93 375L97 375C97.1894 358.054 110.552 337.383 116.509 321.675C131.563 281.982 146.618 242.509 162.054 203.439C169.401 184.843 184.38 164.806 187 145C191.881 143.295 194.073 136.37 196.549 132.089C201.774 123.054 212.327 101.789 223 99C226.234 86.441 250.512 69.7103 262.289 65.7276C268.725 63.5514 280.772 62.6654 285 57L286 57L287 57C288.947 59.2309 291.053 59.2309 293 57L294 57L295 57L295 59L296 59L297 59C302.596 54.7614 315.159 59.1129 321 61.7839C340.216 70.5717 351.553 85.5035 357.995 105.425C362.423 119.116 358.346 135.796 355.454 149.004C349.269 177.249 343.665 206.822 330.158 232.671C328.127 236.558 323.505 239.032 320.761 242.441C316.773 247.397 314.649 253.952 313 260C316.976 256.763 318.113 250.049 321.471 245.911C331.364 233.715 345.329 225 361 225C361.034 234.634 369.453 241.296 377.7 233.91C384.803 227.548 385.148 215.344 392.468 209.13C400.966 201.915 414.437 201.195 418 190L411 189L411 187C419.502 182.312 421.389 158.944 423.46 150.001C428.783 127.011 435.104 101.284 430.741 77.1697C427.809 60.9657 421.593 46.1958 415 31L411 31L411 27C360.431 27 311.898 33.4998 265 53.7191C254.728 58.1475 225.424 66.2415 225 79z"/>
<path style="fill:#cfa84b; stroke:none;" d="M177 64L177 66C188.18 69.3047 202.832 60.424 210 52C196.312 52 188.635 57.5466 177 64z"/>
<path style="fill:#f1d98f; stroke:none;" d="M285 57C279.049 62.3727 268.832 63.1472 261.439 65.7276C250.626 69.5018 239.314 79.4254 231.333 87.3341C227.775 90.8606 223.751 93.846 223 99L213.41 107.102L196.549 131.17L187 145C182.563 164.894 169.698 183.683 162.054 202.615C146.353 241.505 130.898 280.973 116.509 320.816C110.617 337.13 97.0602 357.455 97 375L93 375L95 377L95 378L95 379C90.8875 382.588 89.9076 392.659 88.723 397.907C86.5983 407.321 82.4698 416.127 80.7407 425.91C78.0961 440.875 73.589 456.724 73.0185 472.015C72.293 491.461 79.1033 512.39 87.6219 529.015C92.7272 538.978 99.1245 551.348 108.76 557.738C127.184 569.955 152.455 573.962 172.196 563.595C178.448 560.312 187.833 554.35 189 547L193 547L211 525L190 488L189 488C187.787 497.676 176.747 507.832 168.816 512.999C164.287 515.949 157.568 518.07 155 523L154 523L153 523C150.004 519.571 141.297 520.316 137 521C131.111 513.271 122.435 509.938 117.249 500.986C107.115 483.49 106.764 458.824 109.129 439.039C109.98 431.923 113 426.614 113 419L115 419L115 423L117 423L121 393L123 393L123 397L125 397L127 391L123 391L129 385L137 349L139 349L139 353L141 353L139 345C142.247 343.882 146.396 340.015 143 337L143 336L143 335L145 327L147 327L147 331L149 331L147 323L152.358 319.745L153.406 309.131L161 287L163 287L163 291L165 291L165 277L169 279L169 275L165 275L165 273L169 273L169 267L173 266L171 263L174 260L177 261C177.013 256.305 176.639 251.668 181 249L179 245L179 244L179 243C188.299 238.409 182.232 225.051 193 219L191 215L191 214L191 213L193 207L197 209L195 205L195 204L195 203L203 185L211 179L207 179L213 175L211 169L217 167L215 163L215 162L215 161L217 157L221 157L229 137C234.363 136.212 235.783 131.609 239.334 128.001C246.295 120.929 255.008 111.266 265 109L265 105L267 107L268 107L269 107C274.006 102.48 281.505 102.257 288 102.665C310.099 104.055 320.991 122.985 320.991 144C320.991 153.209 317.22 161.594 320 171L317 166L316 166L315 173C318.326 178.343 312.942 187.501 311.441 193C307.874 206.076 303.127 219.028 298.29 231.725C295.665 238.615 291.221 245.525 291 253L288 252L289 257L287 264L284 263L281 281C289.185 280.258 294.993 274.19 302.093 270.724C305.092 269.26 309.794 268.333 311.825 265.491C316.01 259.632 315.676 250.449 320.173 244.039C322.916 240.129 327.863 237.6 330.158 233.471C343.81 208.912 349.971 178.353 355.262 151C358.391 134.82 362.538 116.698 356.583 100.271C349.61 81.0335 333.922 60.8956 312.015 58.9506C307.232 58.526 300.807 54.6435 297 59L296 59L295 59L295 57L294 57L293 57L287 57L285 57z"/>
<path style="fill:#d9b760; stroke:none;" d="M135 97L149 96.6906L187 68C170.906 61.2286 144.118 84.6112 135 97z"/>
<path style="fill:#f7e486; stroke:none;" d="M583 66C592.237 77.3478 606.438 85.7116 617 96.0146C641.115 119.539 663.116 146.1 680.55 175C758.956 304.969 759.497 475.1 672.971 602C649.721 636.099 622.307 666.744 590 692.551C578.805 701.493 566.931 709.432 555 717.333C549.41 721.034 542.371 723.898 538 729C549.614 726.93 561.509 719.493 572 714.247C603.61 698.442 632.142 678.135 658 654.089C792.469 529.045 810.686 314.643 700.873 168C678.061 137.536 650.988 110.724 620 88.5787C608.95 80.6822 596.036 70.1268 583 66z"/>
<path style="fill:#eed37c; stroke:none;" d="M128 171C121.846 172.319 117.622 193.942 114.5 199.778C101.161 224.713 95.4823 252.902 84 278.611C80.6384 286.138 70.7699 301.51 75 309L71 309C64.705 337.228 46.7614 362.857 41.2593 391.171C38.4207 405.778 40.742 420.414 41.9144 435C45.5396 480.104 60.8325 526.295 82.3086 566C93.1883 586.114 105.904 605.164 120.2 623C125.469 629.574 131.975 639.214 140.17 642.401C156.407 648.718 184.08 637.142 197.474 628.204C202.354 624.948 210.099 621.133 211 615C215.734 614.31 218.31 611.734 219 607C223.734 606.31 226.31 603.734 227 599C232.812 598.146 233.179 593.724 236.224 589.478C241.653 581.908 251.608 572.559 253 563L258 563C251.516 550.241 230.273 543.066 220 533L207.777 550.522L186.819 571.95L163 587L162 587L161 587L161 585L160 585L159 585L151 589L150 589L149 589L149 587L148 587L147 587C143.815 588.983 139.812 587.2 137 585L136 585L135 585L135 587L134 587L133 587L133 585L132 585L131 585L131 587L130 587L129 587L112.235 578.29L88.0177 556.653L69 525C70.1754 513.995 63.2299 499.128 61.2593 487.91C58.8973 474.466 62.4025 461.759 64.7407 448.83C65.6698 443.693 64.1609 438.256 65.4599 433.171C72.9452 403.864 82.782 374.931 93.7099 346.275C98.7575 333.038 108.952 317.091 109 303L113 303C113.012 287.906 123.031 272.899 128.255 258.964C141.147 224.57 153.623 189.418 169.82 156.31C173.83 148.114 177.733 139.422 182.255 131.51C185.396 126.014 190.137 121.476 191 115L195 115L193 113L193 112L193 111C204.783 104.861 210.444 79.9982 225 79L225 74C214.722 77.7631 204.865 85.2433 196 91.5787C173.986 107.311 147.626 124.952 136.176 149.675C133.083 156.353 128.151 163.412 128 171z"/>
<path style="fill:#cba13d; stroke:none;" d="M182 88C93.0917 146.096 38.1166 252.548 28.1698 357C26.2982 376.653 26.0705 397.356 28.1736 417C29.0302 425.001 31.7672 433.016 32 441L33 441L38 419L39 419L39 424L40 424C40 408.014 37.9938 392 39.0895 376C43.2693 314.964 59.8534 256.632 91.6011 204C107.011 178.453 125.687 153.946 147.015 133.039C152.969 127.202 170.275 117.017 169 108C173.675 105.096 182.285 93.5446 182 88z"/>
<path style="fill:#cba341; stroke:none;" d="M121 111C134.074 111.561 140.047 108.29 148 97C135.753 97 127.161 99.1236 121 111z"/>
<path style="fill:#f3dfa2; stroke:none;" d="M269 107L268 107L267 107L265 105L265 109C254.842 110.353 245.494 120.972 238.671 128.001C235.291 131.483 233.971 135.701 229 137L221 157L217 157L215 161L215 162L215 163L217 167L211 169L213 175L207 179L211 179L203 185L195 203L195 204L195 205L197 209L193 207L191 213L191 214L191 215L193 219C181.167 223.069 187.324 236.957 179 243L179 244L179 245L181 249C175.926 250.484 177 256.584 177 261L174 260L171 263L173 266L169 267L169 273L165 273L165 275L169 275L169 279L165 277L165 291L163 291L163 287L161 287L153.406 308.275L151.884 319.745L147 323L149 331L147 331L147 327L145 327L143 335L143 336L143 337C145.056 340.484 142.117 343.244 139 345L141 353L139 353L139 349L137 349L129 385L123 391L127 391L125 397L123 397L123 393L121 393L117 423L115 423L115 419L113 419C113 426.271 109.963 431.302 109.129 438.09C106.192 461.988 107.78 488.465 121.71 508.522C125.331 513.736 132.27 516.866 137 521L153 523L154 523L155 523C163.652 511.835 183.379 508.337 188.221 492.96C190.068 487.094 186.239 481.734 184.09 476.575C181.144 469.501 179.018 461.338 176.714 453.996C172.764 441.415 168.107 424.926 167.058 411.996C166.271 402.298 168.968 393.44 169 384L172 384C173.679 362.93 190.33 341.299 206.517 329.093C214.404 323.145 227.287 316.8 233 309L236 310C242.527 301.007 259.621 293.647 269.427 288.264C272.676 286.48 277.748 285.501 279.988 282.312C283.218 277.712 283.569 268.459 284 263L287 264L289 257L288 252L291 253C291.461 245.91 295.749 239.13 298.29 232.565C303.172 219.953 307.873 206.991 311.441 193.986C312.737 189.263 319.259 176.761 315 173L316 166L317 166C317.064 168.993 316.946 170.346 320 171C317.79 161.719 320.861 154.012 320.995 144.996C321.29 125.222 312.474 104.817 291 102.831C284.501 102.23 273.378 101.134 269 107z"/>
<path style="fill:#d7b45a; stroke:none;" d="M91 142L106.715 140.227L133 113L133 112L122 109C111.347 113.968 95.9355 131.354 91 142z"/>
<path style="fill:#caa03a; stroke:none;" d="M80 156C92.7075 157.606 100.083 153.714 105 141C92.6379 141 85.1978 143.705 80 156z"/>
<path style="fill:#edcd6a; stroke:none;" d="M137 143C67.8482 212.728 39 310.146 39 406L40 406C40.7109 371.557 66.5723 342.468 71 309L75 309C71.7029 299.613 81.4662 286.582 84.5941 277.725C94.1581 250.644 104.098 223.035 116.365 197C119.722 189.874 121.243 175.334 128 171L137 143z"/>
<path style="fill:#d5b254; stroke:none;" d="M79 155L57 189C63.1599 185.347 67.9501 184.322 75 186L93 157L79 155z"/>
<path style="fill:#dd8e36; stroke:none;" d="M503 179L506 189L507 189L507 182L503 179z"/>
<path style="fill:#cb682a; stroke:none;" d="M418 185L418 187C427.801 187.108 442.377 188.104 448 197C428.856 197 410.467 196.725 394.379 209.021C385.04 216.159 384.023 228.942 375.696 236.318C372.205 239.411 365.426 239.585 361 241L367 237L361 226C346.698 226 324.427 233.229 320 249C330.05 241.066 339.297 230.233 353 229L347 239L358 235C352.846 248.419 340.967 249.787 329.039 254.989C323.779 257.283 320.103 261.199 314 261C312.365 267.256 306.388 268.071 301.184 270.724C290.697 276.071 280.212 282.342 270.083 288.424C233.495 310.394 173.104 340.13 171 389C177.439 384.942 179.971 366.234 183.919 359.015C189.587 348.651 205.187 340.192 216 336.3C245.667 325.623 275.408 340.663 295.486 362.715C300.609 368.341 309.13 375.247 310.721 383C316.851 412.855 298.733 446.09 287.212 472C279.989 488.245 269.326 503.642 255.83 515.499C252.56 518.372 246.693 525.452 241.91 525.199C236.927 524.936 230.896 519.912 227 517.14C214.873 508.509 204.051 498.212 195.079 486.324C185.311 473.382 181.061 458.529 177 443L176 443C173.237 459.741 185.984 482.253 193.951 496.424C214.128 532.314 247.407 557.293 283.826 575.134C297.525 581.845 312.396 589.678 328 590L328 593C344.183 593.695 359.806 597.589 376 597.985C399.483 598.561 420.329 594.269 443.09 590.259C454.696 588.215 466.442 588.6 477.999 585.829C489.742 583.015 499.919 577.108 509.439 569.826C515.634 565.088 520.797 558.445 529 558L522 577C534.423 575.149 544.488 562.754 547 551C556.695 551.733 557.934 562.989 558 571C573.886 562.801 572.04 540.381 572 526L591 538L590.522 515.039L585 498C594.639 498 603.659 497.403 612 492C605.821 486.962 593.232 482.621 593.238 473.039C593.245 460.674 600.491 446.147 602.741 433.83C605.922 416.412 605.119 395.646 603.911 378C602.828 362.194 599.801 346.29 595.026 331.17C592.193 322.198 586.278 313.549 586 304L578 310C588.404 309.464 594.699 337.86 595.844 347C599.132 373.246 602.748 398.192 600.911 425C599.96 438.871 593.038 451.226 593 465L587 464C588.708 477.504 596.525 482.388 604 493C595.346 495.743 586.638 495.695 578 493C582.736 507.193 588 516.657 588 532C580.821 525.997 574.741 520.033 565 520C567.426 531.625 574.891 555.187 560 563C559.819 554.566 555.398 546.482 549 541C543.106 552.741 540.223 562.591 529 571C531.051 564.596 534.846 552.078 526 549C523.952 555.72 516.281 559.713 511.015 563.888C494.357 577.094 475.246 584.315 454 587C457.962 581.915 465.449 579.996 471 576.902C483.209 570.097 502.921 558.927 509 546C500.421 549.685 493.464 557.755 485.914 563.219C472.192 573.151 453.221 584.157 436.83 588.559C368.237 606.979 291.034 587.22 237 542.258C222.652 530.32 206.677 514.816 198 498C208.993 505.779 216.991 516.351 228.715 523.706C232.824 526.284 237.821 530.607 243.001 530.375C249.462 530.086 254.626 523.384 258.831 519.286C272.027 506.426 281.769 492.163 290.475 476C301.23 456.033 308.142 435.125 312.374 413C314.484 401.971 316.734 390.198 313.861 379.015C311.815 371.052 301.738 362.617 295.985 356.961C270.639 332.045 241.503 323.085 208 335C217.312 323.337 232.458 315.542 244.834 307.515C271.373 290.3 298.959 274.426 327.961 261.781C342.856 255.286 357.43 244.065 374 242L373 249L374 249C387.363 231.606 406.723 229 427 229C421.719 240.115 417.906 248.003 421 261L423 261C428.069 253.069 437.466 247.648 446 244.023C450.567 242.084 457.3 242.14 459 237C445.48 233.819 432.942 245.621 423 253L432 228C421.999 225.583 413.254 224.081 403 226.591C395.729 228.371 389.332 232.857 382 234C384.568 228.76 386.755 222.749 390.393 218.17C408.194 195.759 431.607 201.953 456 203C454.33 190.249 441.726 189.313 432 185L432 184C469.184 184 488.03 204.62 510 232C515.613 222.63 512.517 200.848 509 191C523.262 202.146 523.41 225.744 530.148 240.87C532.189 245.452 538.741 246.147 540.249 251.043C541.383 254.724 536.753 259.266 536 263L549 250C519.538 239.101 531.014 195.665 505 181L509 221L505 221C502.903 213.457 494.005 206.06 487.961 201.456C474.633 191.305 458.723 180.258 441 180.258C433.345 180.258 425.687 184.387 418 185z"/>
<path style="fill:#ed862b; stroke:none;" d="M432 184L432 185L450 192L450 191L439 187L439 185L451 185L432 184z"/>
<path style="fill:#c99f39; stroke:none;" d="M74 185C65.3966 185 59.0344 185.07 53.9691 193.039C52.7624 194.938 50.5427 198.11 52.0826 200.397C59.9577 212.088 72.3142 190.327 74 185z"/>
<path style="fill:#f8c33b; stroke:none;" d="M439 185L439 187C447.61 187.778 454.099 194.717 456 203C432.095 201.113 405.146 195.51 389.002 219.089C386.047 223.405 383.686 229.063 382 234C388.426 233.417 392.07 228.863 398.001 226.974C410.551 222.975 420.506 224.041 433 227L433 230C425.897 233.784 425.02 242.707 425 250C436.267 245.667 446.013 234.698 459 237L459 251L455 251L443 287L449 285L447 289C467.749 280.892 484.097 293.182 486 315L483 315C480.909 296.225 456.537 297.888 443 298L443 299L450 299L450 300C436.076 300.04 431.046 309.716 431 323L427 323C426.93 329.286 423.547 341.288 417 343C419.02 358.699 406.534 380.984 399.838 395.514C396.932 401.818 395.908 409.726 391 415C391.822 428.653 379.147 443.333 375.455 456.289C373.688 462.491 372.319 470.841 367 475L367 476L372 474L368 479C383.621 473.437 393.932 464.638 412 467.301C417.816 468.158 423.996 470.765 429 473.796C469.847 498.541 435.632 548.251 406.961 566.856C361.326 596.467 310.591 580.707 267 558L268 562L264 562L264 563C270.648 564.35 276.695 569.872 282.996 572.667C297.306 579.013 313.248 584.389 328.285 588.529C354.726 595.81 386.782 596.326 414 592.428C422.292 591.241 430.577 591.292 438.576 588.24C465.025 578.146 485.575 560.76 509 546C497.069 562.797 475.579 574.391 458 584L458 585C478.145 584.944 496.203 575.913 512 563.884C517.201 559.924 524.844 555.9 526 549C534.394 553.854 530.534 563.627 529 571C540.425 565.262 544.011 551.736 549 541C554.329 547.433 559.602 554.406 560 563C564.844 561.47 565.724 556.563 567.026 552C570.675 539.21 568.946 532.21 565 520C574.897 520.11 579.943 527.475 588 532C588 516.915 584.407 506.621 578 493L604 493C598.843 481.941 587.778 477.139 586 464L593 465C593.061 457.607 596.268 452.652 597.725 445.83C599.47 437.664 599.875 428.18 600.871 419.91C604.274 391.673 599.658 363.851 592.089 336.91C589.906 329.137 588.737 318.229 584.486 311.336C581.666 306.764 569.917 314.866 565.911 315.779C553.024 318.716 530.598 308.174 529.897 293C529.628 287.174 534.837 280.237 538.322 276C550.041 261.749 565.744 255.001 584 255C589.493 255 600.06 254.228 604.258 258.6C607.728 262.213 606 271.369 606 276L607 276C608.712 272.704 607.912 269.304 609.313 266.133C612.426 259.089 622.358 261.048 628 262L607 250L626 247C620.189 240.346 608.438 239.004 600 239C579.811 238.991 559.868 240.98 544.001 255.129C535.916 262.338 533.953 272.56 527 280L534.326 262.985L541.097 253.004L530.573 240.87L526.786 226L513 196L512 196C512.25 208.108 514.914 220.373 510 232C495.196 205.81 469.595 185 439 185z"/>
<path style="fill:#ef922e; stroke:none;" d="M467 190L467 191L475 195L475 194L467 190z"/>
<path style="fill:#ef942d; stroke:none;" d="M509 191L512 223L513 223C513 215.609 516.129 194.751 509 191z"/>
<path style="fill:#e8d48f; stroke:none;" d="M741 192C742.1 200.395 748.971 209.389 752.752 217C761.523 234.655 771.388 253.754 776 273L777 273C775.273 253.221 762.438 230.456 753.489 213C749.93 206.056 746.586 197.51 741 192z"/>
<path style="fill:#814116; stroke:none;" d="M446 195L446 197L448 197L448 195L446 195z"/>
<path style="fill:#c99040; stroke:none;" d="M423 196L423 197L446 197L423 196z"/>
<path style="fill:#d5b153; stroke:none;" d="M50 199L35 231L50.6096 227.972L65 202L50 199z"/>
<path style="fill:#ef9131; stroke:none;" d="M404 225L404 226C413.1 225.812 424.573 223.039 432 230C433.99 221.605 408.598 223.641 404 225z"/>
<path style="fill:#dfa457; stroke:none;" d="M348 225L348 226L361 226L348 225z"/>
<path style="fill:#ee8631; stroke:none;" d="M391 231L403 227C398.776 225.49 393.568 227.387 391 231z"/>
<path style="fill:#de9b51; stroke:none;" d="M344 229L348 228L344 229z"/>
<path style="fill:#c99e36; stroke:none;" d="M29 247C43.5507 247 46.8996 243.343 51 229C37.731 229 29.7726 231.946 29 247z"/>
<path style="fill:#f5b047; stroke:none;" d="M313 265L314 265L314 261C319.826 262.095 324.107 257.885 329.039 255.434C339.991 249.994 353.713 249.829 357 236L347 239L353 229C336.181 229.78 314.158 247.562 313 265z"/>
<path style="fill:#f09332; stroke:none;" d="M394 233L394 234L410 230C404.874 227.999 398.805 230.994 394 233z"/>
<path style="fill:#f8c53e; stroke:none;" d="M373 249L374 242C363.939 242.751 346.735 250.595 338 256L338 257L344 256L335 267C335.16 271.231 334.784 274.691 331 277C331.243 281.819 330.47 285.525 327 289C328.058 295.349 322.663 303.506 319 309C317.771 310.844 318.731 315.806 318 318C316.663 322.011 313.289 325.566 311 329C308.75 332.375 312.355 340.339 307 339L302.551 356.995L304 365C307.168 370.434 313.514 375.114 315.436 381.001C318.846 391.446 314.344 402.093 312.375 412.001C307.011 438.999 297.964 463.375 284.259 487.17C276.554 500.548 268.815 510.205 257.015 520.258C252.936 523.733 249.611 528.611 244 529.779C239.165 530.786 234.191 526.764 230.421 524.275C221.486 518.376 212.597 508.146 203 504C209.232 522.517 231.71 540.3 247 551.204C253.64 555.94 259.63 560.974 268 562L249 537C287.063 546.062 325.756 519.122 351 493.999C357.289 487.74 367.697 481.665 372 474L367 476L367 475C372.546 472.093 373.896 462.781 375.455 457.167C379.081 444.108 392.467 428.735 391 415C395.832 411.563 397.642 402.596 399.505 397.181C404.927 381.419 420.629 359.332 417 343C424.098 341.957 426.978 329.386 427 323L431 323C431.141 310.29 436.587 300.12 450 300L450 299L433 299L449 285L443 287L455 251L459 251L459 241C446.854 241.251 428.076 249.266 423 261L421 261C419.806 254.567 419.254 247.464 420.844 241.039C421.524 238.293 425.511 233.344 423.843 230.603C421.931 227.462 412.969 228.942 410 229.464C394.395 232.204 385.208 239.799 373 249z"/>
<path style="fill:#ef872d; stroke:none;" d="M424 229L426 233L427 229L424 229z"/>
<path style="fill:#dfa754; stroke:none;" d="M376 234L370 238L370 239C372.99 238.591 376.943 237.652 376 234z"/>
<path style="fill:#dea848; stroke:none;" d="M532 234C532.089 241.477 538.623 247.011 546 248L546 247L533 240L532 234z"/>
<path style="fill:#ef8133; stroke:none;" d="M348 238L348 239L357 238C359.017 232.649 349.926 237.015 348 238z"/>
<path style="fill:#df6f23; stroke:none;" d="M557 244L557 245C579.31 243.158 605.578 230.292 626 247L607 250L628 262C622.536 260.555 612.613 258.845 609.117 265.278C607.555 268.152 608.257 272.689 607 276L606 276C606 270.055 608.609 258.321 601 257L601 258C607.177 263.451 604.929 272.651 604 280C611.086 277.087 609.48 270.417 614.569 266.148C619.273 262.201 626.528 264.765 632 265L622 249L634 251C630.347 243.005 619.263 238.569 610.999 237.425C591.643 234.746 574.885 236.953 557 244z"/>
<path style="fill:#200f07; stroke:none;" d="M361 241L369 239C365.598 236.477 362.991 237.391 361 241z"/>
<path style="fill:#f2a63b; stroke:none;" d="M375 248L385 239L375 248z"/>
<path style="fill:#ee862c; stroke:none;" d="M424 241L423 253L427 251L426 241L424 241z"/>
<path style="fill:#f0942e; stroke:none;" d="M549 252L563 245L563 244L557 245L557 244L563 242C557.231 239.981 551.099 247.342 549 252z"/>
<path style="fill:#f2a13d; stroke:none;" d="M353 250L367 245C362.803 244.058 355.686 246.66 353 250z"/>
<path style="fill:#d5b153; stroke:none;" d="M28 245L19 274L34 276L44 247L28 245z"/>
<path style="fill:#ec7b26; stroke:none;" d="M570 256L570 257L599 257C591.765 252.666 578.021 254.511 570 256z"/>
<path style="fill:#fad760; stroke:none;" d="M208 335C227.712 330.544 243.931 323.348 263.83 333.833C273.1 338.717 282.294 344.978 290.001 352.093C294.618 356.356 299.561 363.916 306 365C300.593 354.478 306.905 349.494 307 339L312.875 328.588L319.435 311.134L327 289C331.114 286.273 331.725 281.638 331 277C335.453 275.699 335.743 271.088 335 267L344 256C332.204 256.964 323.321 264.223 313 269.04C287.29 281.04 262.31 295.302 238.576 310.921C229.512 316.885 213.154 325.519 208 335z"/>
<path style="fill:#be5c1e; stroke:none;" d="M539 277C554.547 266.091 565.145 257.992 585 258C589.879 258.002 598.893 257.528 601.972 262.303C607.499 270.873 599.808 284.579 598 293L607 279L604 280C604.994 274.647 607.136 263.995 603.258 259.434C599.856 255.433 590.764 256.007 586 256C570.799 255.977 543.891 259.413 539 277z"/>
<path style="fill:#ef8c2b; stroke:none;" d="M557 260L557 261L568 258L557 260z"/>
<path style="fill:#ed8228; stroke:none;" d="M557 263L557 264L598 260C586.832 253.31 568.26 259.393 557 263z"/>
<path style="fill:#f4a532; stroke:none;" d="M538 275C533.565 281.58 528.393 288.73 530 297L533 295C535.467 304.485 545.76 311.835 555 314L555 315L549 314L549 315L569 316L569 315L565 315L565 313C580.433 312.594 597.515 296.041 602 282C603.167 278.347 605.309 261.721 601 260.167C587.98 255.471 566.174 259.597 554 264.5C549.853 266.17 541.442 277.409 538 275z"/>
<path style="fill:#eb7825; stroke:none;" d="M535 261L527 280C531.041 277.138 537.284 265.593 535 261z"/>
<path style="fill:#f5a947; stroke:none;" d="M308 270L308 271L320 266L308 270z"/>
<path style="fill:#f29242; stroke:none;" d="M295 277L295 278L304 274L295 277z"/>
<path style="fill:#c99e36; stroke:none;" d="M14 292C28.1223 292 32.3418 289.098 33 274C18.773 274 14.6589 276.887 14 292z"/>
<path style="fill:#f5a04c; stroke:none;" d="M272 290L272 291L280 287L272 290z"/>
<path style="fill:#b74e16; stroke:none;" d="M451 288L468 287C463.905 285.282 454.084 284.471 451 288z"/>
<path style="fill:#e0a668; stroke:none;" d="M269 289L273 288L269 289z"/>
<path style="fill:#89350d; stroke:none;" d="M433 299C452.581 294.98 472.524 294.147 484 314C488.077 304.193 478.104 290.933 469 287.854C456.928 283.771 440.605 289.195 433 299z"/>
<path style="fill:#d6b254; stroke:none;" d="M13 288L7 318L23 320L24 320L29 292L14 292L13 288z"/>
<path style="fill:#eb7422; stroke:none;" d="M444 291L447 290L444 291z"/>
<path style="fill:#d98734; stroke:none;" d="M598 289L586.319 304.169L591 323L592 323L587.871 305.961L598 289z"/>
<path style="fill:#d89e64; stroke:none;" d="M261 294L268 291C264.954 289.663 262.586 291.254 261 294z"/>
<path style="fill:#f09b2d; stroke:none;" d="M474 290L481 299L482 299L474 290z"/>
<path style="fill:#e56f23; stroke:none;" d="M531 295C533.136 306.039 544.203 314.117 555 315L555 314L531 295z"/>
<path style="fill:#ee8c2a; stroke:none;" d="M436 298L436 299L467 299C459.322 293.724 444.484 295.487 436 298z"/>
<path style="fill:#dda46b; stroke:none;" d="M248 302L255 299C251.954 297.663 249.586 299.254 248 302z"/>
<path style="fill:#eb7b24; stroke:none;" d="M468 299L471 301L468 299z"/>
<path style="fill:#f5a550; stroke:none;" d="M250 303L250 304L256 300L250 303z"/>
<path style="fill:#e8c88e; stroke:none;" d="M236 310L233 309L211 326L211 327L247 304C242.132 302.271 238.095 305.756 236 310z"/>
<path style="fill:#ec7a26; stroke:none;" d="M565 313L565 315L580 311L565 313z"/>
<path style="fill:#ec7722; stroke:none;" d="M485 310L485 314L484 314L484 312L483 312L486 315L485 310z"/>
<path style="fill:#ee892a; stroke:none;" d="M585 313L588 320L585 313z"/>
<path style="fill:#ec892a; stroke:none;" d="M449 320L465 319C460.771 316.111 452.33 315.625 449 320z"/>
<path style="fill:#c99f39; stroke:none;" d="M7 318L5 337L21 337L23 318L7 318z"/>
<path style="fill:#f6ad55; stroke:none;" d="M220 325L229 318L220 325z"/>
<path style="fill:#c05f1f; stroke:none;" d="M430 354L431 354C436.886 342.583 437.583 331.85 449 323.569C458.573 316.625 473.316 324.38 474 336L478 338C476.056 322.398 459.198 311.792 445.005 321.564C436.052 327.728 430.479 343.519 430 354z"/>
<path style="fill:#f2a532; stroke:none;" d="M433 349C439.808 344.958 448.697 330.488 458 335C463.043 329.855 468.981 333.748 475 335C471.787 324.209 459.471 316.149 449 322.879C440.288 328.478 434.51 338.921 433 349z"/>
<path style="fill:#e6c287; stroke:none;" d="M187 349L211 327C201.898 328.844 190.5 340.727 187 349z"/>
<path style="fill:#ee892b; stroke:none;" d="M475 327L479 340L480 340L475 327z"/>
<path style="fill:#f4a04e; stroke:none;" d="M227 328L227 329L249 329L227 328z"/>
<path style="fill:#eb7d28; stroke:none;" d="M437 329L434 338L435 338L439 329L437 329z"/>
<path style="fill:#f49145; stroke:none;" d="M249 330L249 331L257 332L249 330z"/>
<path style="fill:#ee852a; stroke:none;" d="M591 330L595 347L596 347L591 330z"/>
<path style="fill:#e8d5aa; stroke:none;" d="M4 331L4 335L5 335L4 331z"/>
<path style="fill:#f5a74c; stroke:none;" d="M259 332L259 333L266 335L266 334L259 332z"/>
<path style="fill:#ae541a; stroke:none;" d="M459 332L459 333L467 333L459 332z"/>
<path style="fill:#f8b857; stroke:none;" d="M225 513L225 512L222 510L222 509C230.837 502.536 226.543 490.625 224.455 481.83C220.365 464.603 221 445.604 221 428L222 428L223 436L225 436C225.021 430.006 226.025 426.611 231 423L231 422L231 421C227.878 415.985 232.993 409.564 234.856 404.856C240.063 391.693 250.086 375.345 251 361L255 360L253 358L259 341L261 343L262 343L263 343L266 341C261.463 334.578 249.318 333.003 242 333C222.799 332.991 200.009 339.413 186.529 354.428C164.396 379.082 172.934 416.555 178.88 445C182.004 459.941 184.43 473.016 193.873 485.514C201.327 495.377 212.015 511.045 225 513z"/>
<path style="fill:#b3591b; stroke:none;" d="M453.667 333.333L454.333 333.667L453.667 333.333z"/>
<path style="fill:#000000; stroke:none;" d="M430 359C441.758 361.622 455.5 364.863 467 358.941C483.906 350.235 481.473 336.294 464 333C468.007 346.226 452.378 346.855 457 333C445.508 336.167 430.712 345.973 430 359z"/>
<path style="fill:#f0d374; stroke:none;" d="M458 333L458 334L464 335L458 333z"/>
<path style="fill:#562a0d; stroke:none;" d="M466 333L466 334L469 334L466 333z"/>
<path style="fill:#b6591c; stroke:none;" d="M469.667 333.333L470.333 333.667L469.667 333.333z"/>
<path style="fill:#fffffe; stroke:none;" d="M456 343C462.636 342.977 464.918 341.932 465 335C457.699 333.71 456.025 335.878 456 343z"/>
<path style="fill:#d6b357; stroke:none;" d="M4 335L1 371L2 371C2.11958 360.882 8.69446 362 17 362L17 373L18 373L20 337L4 335z"/>
<path style="fill:#f48e47; stroke:none;" d="M209 339L209 340L222 336L209 339z"/>
<path style="fill:#793d12; stroke:none;" d="M447.667 336.333L448.333 336.667L447.667 336.333z"/>
<path style="fill:#f0d98e; stroke:none;" d="M455 336L455 341L456 341L455 336z"/>
<path style="fill:#e4c357; stroke:none;" d="M465 336L465 341L466 341L465 336z"/>
<path style="fill:#5a2d0f; stroke:none;" d="M474.667 336.333L475.333 336.667L474.667 336.333z"/>
<path style="fill:#f2e0b0; stroke:none;" d="M3 337L3 345L4 345L3 337z"/>
<path style="fill:#75642d; stroke:none;" d="M454.333 338.667L454.667 339.333L454.333 338.667z"/>
<path style="fill:#f5ad42; stroke:none;" d="M263 343L262 343L261 343L259 341L255 360L251 361C249.237 375.375 240.179 391.7 234.546 404.856C232.854 408.807 226.892 417.373 231 421L231 422L231 423C225.264 425.832 225.005 430.122 225 436L223 436L222 428L221 428C222.267 457.52 231.071 487.351 237 516L236 516L227 495C227.544 500.571 225.767 504.848 222 509L222 510L225 512L225 513L220 512C224.395 516.809 235.779 526.31 242.83 525.565C253.399 524.448 265.207 506.491 271.421 499.075C290.789 475.956 305.259 439.799 309.125 410.039C310.3 400.997 313.198 390.178 310.487 381C306.881 368.793 288.583 353.082 278 346.609C273.965 344.141 266.751 338.168 263 343z"/>
<path style="fill:#ef972f; stroke:none;" d="M432 340L429 355L430 355L432 340z"/>
<path style="fill:#4b401d; stroke:none;" d="M455.333 341.667L455.667 342.333L455.333 341.667z"/>
<path style="fill:#ae9442; stroke:none;" d="M464 342L465 343L464 342z"/>
<path style="fill:#f2dd9a; stroke:none;" d="M457 343L457 344L463 344L457 343z"/>
<path style="fill:#927d38; stroke:none;" d="M463 343L464 344L463 343z"/>
<path style="fill:#806d31; stroke:none;" d="M458 344L458 345L463 345L458 344z"/>
<path style="fill:#eee0bb; stroke:none;" d="M2 346L2 353L3 353L2 346z"/>
<path style="fill:#8c4815; stroke:none;" d="M478.333 346.667L478.667 347.333L478.333 346.667z"/>
<path style="fill:#ef912b; stroke:none;" d="M477 350C471.246 355.706 465.801 359.641 458 362L458 363C464.367 362.125 477.166 357.845 477 350z"/>
<path style="fill:#793d12; stroke:none;" d="M429 355L429 359L430 359L429 355z"/>
<path style="fill:#f9e8bc; stroke:none;" d="M1 356L1 362L2 362L1 356z"/>
<path style="fill:#562c0d; stroke:none;" d="M432.667 359.333L433.333 359.667L432.667 359.333z"/>
<path style="fill:#984e18; stroke:none;" d="M438.667 361.333L439.333 361.667L438.667 361.333z"/>
<path style="fill:#6c3811; stroke:none;" d="M458.667 361.333L459.333 361.667L458.667 361.333z"/>
<path style="fill:#caa03a; stroke:none;" d="M1 381L17 381L17 362C1.84731 362 1.00163 366.238 1 381z"/>
<path style="fill:#e97724; stroke:none;" d="M438 362L438 363L442 363L438 362z"/>
<path style="fill:#68350f; stroke:none;" d="M442 362L442 363L458 363L442 362z"/>
<path style="fill:#f7e7b3; stroke:none;" d="M794 365L794 414L795 414C795 400.212 799.309 377.652 794 365z"/>
<path style="fill:#eee0bb; stroke:none;" d="M0 370L0 411L1 411C1 399.304 4.51085 380.75 0 370z"/>
<path style="fill:#d8943c; stroke:none;" d="M604 376L604 424L605 424C605 410.474 609.209 388.414 604 376z"/>
<path style="fill:#f2a13a; stroke:none;" d="M314 378L314 405L316 405C316 397.55 318.595 384.065 314 378z"/>
<path style="fill:#d7b45a; stroke:none;" d="M1 381L2 426L3 426L2 407L17 407L17 381L1 381z"/>
<path style="fill:#e9bb80; stroke:none;" d="M169 384L169 392L170 392L169 384z"/>
<path style="fill:#f59049; stroke:none;" d="M170 384L172 420L173 420C172.786 409.642 174.497 393.358 170 384z"/>
<path style="fill:#e9bd83; stroke:none;" d="M167 392L167 417L168 417L167 392z"/>
<path style="fill:#dc9861; stroke:none;" d="M168 392L168 418L169 418L168 392z"/>
<path style="fill:#cd6f3a; stroke:none;" d="M169 392L170.09 422.91L174 442L176 442L171 392L169 392z"/>
<path style="fill:#e77235; stroke:none;" d="M187 403L194 402L187 403z"/>
<path style="fill:#8f3b18; stroke:none;" d="M206 422C204.333 415.337 196.878 397.192 187.279 403.18C182.624 406.084 182.736 416.091 187.148 419.062C191.906 422.265 200.469 421.985 206 422z"/>
<path style="fill:#c45d2a; stroke:none;" d="M183 406L183 415L184 415L185 406L183 406z"/>
<path style="fill:#ddc05c; stroke:none;" d="M772 406L772 414L773 414L772 406z"/>
<path style="fill:#cca240; stroke:none;" d="M2 407L3 426L18 426L18 407L2 407z"/>
<path style="fill:#8d3913; stroke:none;" d="M248 427C256.845 427.699 272.649 432.829 280.852 427.972C288.134 423.66 283.223 411.393 276.999 408.858C266.872 404.733 251.928 418.751 248 427z"/>
<path style="fill:#ffffff; stroke:none;" d="M0 411L0 780L375 780L375 779C226.368 779 91.7382 676.199 32.3117 544C20.937 518.696 11.7085 490.406 7.08102 463C4.82802 449.657 3.58754 436.164 1.25926 422.91C0.552755 418.889 1.59964 414.812 0 411M794 414C793.978 446.669 784.584 481.222 774.333 512C722.264 668.332 568.913 779 404 779L404 780L795 780L795 521L795 447L794 414z"/>
<path style="fill:#b7521d; stroke:none;" d="M284 415L284 424L285 424L284 415z"/>
<path style="fill:#f8ebc8; stroke:none;" d="M793 416L793 424L794 424L793 416z"/>
<path style="fill:#feedc2; stroke:none;" d="M1 419L1 426L2 426L1 419z"/>
<path style="fill:#d8b65d; stroke:none;" d="M18 419L18 426L3 426L5 454L6 454L22 452L18 419z"/>
<path style="fill:#d2ae58; stroke:none;" d="M28 419C28.5994 491.406 63.347 561.708 103 620L104 620C103.329 617.146 98.7828 611.587 99.6744 608.948C100.685 605.959 103.635 609.712 103 612L111 611C102.225 595.254 90.9349 580.948 82.3086 565C59.5601 522.943 41.1333 470.31 41 422L40 422L40 424L39 424L39 419L38 419L33 441L32 441L28 419z"/>
<path style="fill:#d6672f; stroke:none;" d="M193 421L193 422L206 423L193 421z"/>
<path style="fill:#eb7825; stroke:none;" d="M599 423L599 436L600 436L601 423L599 423z"/>
<path style="fill:#eb7c2c; stroke:none;" d="M310 424L307 435L308 435L310 424z"/>
<path style="fill:#dea66d; stroke:none;" d="M171 426L171 434L172 434L171 426z"/>
<path style="fill:#ea702b; stroke:none;" d="M261 429L261 430L279 430L261 429z"/>
<path style="fill:#c96930; stroke:none;" d="M221 433C221 460.721 222.204 491.2 236 516L237 516L225.375 466L221 433z"/>
<path style="fill:#f5984b; stroke:none;" d="M173 434L175 446L176 446L176 443L177 443L179 452L180 452L177 436L176 436L176 442L174 442L173 434z"/>
<path style="fill:#e97826; stroke:none;" d="M389 445C392.887 450.174 401.187 449 407 449L407 448L394 447L394 446L423 449C417.093 442.24 397.301 445 389 445z"/>
<path style="fill:#be5e1e; stroke:none;" d="M394 446L394 447L427 453.748L450 467C440.161 448.083 412.754 446 394 446z"/>
<path style="fill:#ee8430; stroke:none;" d="M297 450L291 466L292 466L297 450z"/>
<path style="fill:#e97725; stroke:none;" d="M413 450L413 451L420 452L413 450z"/>
<path style="fill:#cea748; stroke:none;" d="M6 452L9 471L25 471L23 452L6 452z"/>
<path style="fill:#ed8328; stroke:none;" d="M421 452L421 453L431 456L421 452z"/>
<path style="fill:#edddb9; stroke:none;" d="M6 456L6 460L7 460L6 456z"/>
<path style="fill:#f1833d; stroke:none;" d="M225 457L228 481L229 481L225 457z"/>
<path style="fill:#fbe8bd; stroke:none;" d="M7 462L7 466L8 466L7 462z"/>
<path style="fill:#f0912d; stroke:none;" d="M586 464L587 472L588 472L586 464z"/>
<path style="fill:#f0932d; stroke:none;" d="M450 466L449 469L454 473L450 466z"/>
<path style="fill:#c3611f; stroke:none;" d="M249 537C254.21 557.647 284.706 570.379 302.961 574.843C351.467 586.706 406.483 584.467 436.185 537C442.956 526.18 447.837 516.056 446.946 503C445.013 474.666 415.551 461.621 390.09 468.288C365.377 474.758 348.774 496.172 330.91 512.572C311.271 530.602 275.507 545.271 249 537z"/>
<path style="fill:#e9dab1; stroke:none;" d="M8 468L8 471L9 471L8 468z"/>
<path style="fill:#d8b861; stroke:none;" d="M25 468C21.9422 472.717 14.0743 471 9 471L15 498L16 498L32 496L25 468z"/>
<path style="fill:#ec8829; stroke:none;" d="M375 474L375 475L387 471L375 474z"/>
<path style="fill:#73240f; stroke:none;" d="M393 471L393 472L415 471L393 471z"/>
<path style="fill:#440005; stroke:none;" d="M333 514C334.902 524.71 343.177 542.59 335.411 552.811C332.16 557.09 326.779 557.37 322 558.579C303.513 563.257 291.568 558.611 289 538L256 542C261.419 552.447 273.495 559.402 283.83 564.27C308.272 575.781 333.287 579 360 579C360.219 552.49 383.398 521.283 411 518.129C422.871 516.772 429.311 522.056 440 524C455.992 490.777 425.167 465.322 393 472.514C366.31 478.481 354.248 499.471 333 514z"/>
<path style="fill:#f09737; stroke:none;" d="M292 472L286 485L287 485L292 472z"/>
<path style="fill:#7a2910; stroke:none;" d="M384 474L384 475L393 473L384 474z"/>
<path style="fill:#d7c391; stroke:none;" d="M9 473L10 480L11 480L9 473z"/>
<path style="fill:#903b15; stroke:none;" d="M378 478L381 477L378 478z"/>
<path style="fill:#e0a947; stroke:none;" d="M593 476C597.094 483.892 604.612 487.684 612 492L600 496L600 497C605.601 496.953 612.606 495.913 616 491L593 476z"/>
<path style="fill:#f08139; stroke:none;" d="M229 483L231 497L232 497L229 483z"/>
<path style="fill:#ef8c2b; stroke:none;" d="M441 484L444 491L445 491L441 484z"/>
<path style="fill:#f09535; stroke:none;" d="M282 490L276 501L277 501L282 490z"/>
<path style="fill:#ef8e2c; stroke:none;" d="M445 491L446 516L447 516C449.237 508.433 448.901 497.955 445 491z"/>
<path style="fill:#ee862a; stroke:none;" d="M580 493L580 494L603 494L603 493L580 493z"/>
<path style="fill:#cfa84b; stroke:none;" d="M16 496C17.3919 511.962 22.0597 515 37 515C36.2946 498.82 30.8302 496 16 496z"/>
<path style="fill:#f4a74a; stroke:none;" d="M198 498L205 505L198 498z"/>
<path style="fill:#f19739; stroke:none;" d="M274 501L266 513L276 501L274 501z"/>
<path style="fill:#e87626; stroke:none;" d="M310 525L310 526C318.664 524.013 328.477 516.844 334 510L310 525z"/>
<path style="fill:#dabb68; stroke:none;" d="M37 513L21 515L31 543L32 543L48 541L37 513z"/>
<path style="fill:#f29a39; stroke:none;" d="M261 518L266 513L261 518z"/>
<path style="fill:#eadcb7; stroke:none;" d="M21 516L22 521L23 521L21 516z"/>
<path style="fill:#f4e2aa; stroke:none;" d="M327 520L332 518L333 545L334 545L333 516L327 520z"/>
<path style="fill:#652617; stroke:none;" d="M333 517L336 531L337 531L333 517z"/>
<path style="fill:#fffffe; stroke:none;" d="M290 538C294.294 549.047 297.508 556 310 556L306 541L307 541L312 556C317.409 555.553 329.06 552.852 331.972 547.856C335.806 541.278 333.341 525.226 332 518L290 538z"/>
<path style="fill:#9b100a; stroke:none;" d="M406 519L406 520L433 521C425.973 516.565 413.815 516.69 406 519z"/>
<path style="fill:#e81f0f; stroke:none;" d="M360 578L361 578C363.827 570.464 365.109 563.126 369.233 556C383.651 531.086 405.572 522 433 522C398.165 504.85 360.366 544.81 360 578z"/>
<path style="fill:#f8e7b0; stroke:none;" d="M310 529L310 530L325 521L310 529z"/>
<path style="fill:#e1b367; stroke:none;" d="M212 522C214.001 529.667 224.018 541.308 232 543L212 522z"/>
<path style="fill:#edd176; stroke:none;" d="M334 522C334 540.684 333.725 553.006 312 556L307 541L306 541L310 556C296.023 555.998 298.761 547.132 290 540C291.106 545.575 292.916 554.591 297.471 558.397C304.483 564.256 330.315 558.759 335.397 551.811C340.128 545.341 337.029 528.732 334 522z"/>
<path style="fill:#fc4e20; stroke:none;" d="M360 579C390.393 578.748 431.146 555.677 440 525C414.318 512.091 383.013 532.282 369.826 554C364.983 561.977 363.707 570.659 360 579z"/>
<path style="fill:#ef902c; stroke:none;" d="M443 523L429 547C434.925 542.735 444.767 530.875 443 523z"/>
<path style="fill:#ec7c2a; stroke:none;" d="M298 531L298 532L308 528L298 531z"/>
<path style="fill:#f3d77c; stroke:none;" d="M306 531L306 532L310 531L306 531z"/>
<path style="fill:#ef9232; stroke:none;" d="M288 534L288 535L297 533L288 534z"/>
<path style="fill:#f4d981; stroke:none;" d="M301 533L301 534L304 534L301 533z"/>
<path style="fill:#efbd50; stroke:none;" d="M298 534L298 535L301 535L298 534z"/>
<path style="fill:#eb792c; stroke:none;" d="M252 538L252 539L286 536L252 538z"/>
<path style="fill:#f6e2a4; stroke:none;" d="M291 537L291 538L300 536L291 537z"/>
<path style="fill:#74371e; stroke:none;" d="M337 535L337 540L338 540L337 535z"/>
<path style="fill:#c99d44; stroke:none;" d="M573 535L573 543L574 543L573 535z"/>
<path style="fill:#874f2a; stroke:none;" d="M289 540L290 544L291 544L289 540z"/>
<path style="fill:#a26e35; stroke:none;" d="M337 540L337 548L338 548L337 540z"/>
<path style="fill:#cfaa4f; stroke:none;" d="M32 541C33.6871 557.471 41.5344 560 56 560C53.2003 544.294 46.5015 541 32 541z"/>
<path style="fill:#853016; stroke:none;" d="M255 543L278 542C273.319 540.036 258.469 539.03 255 543z"/>
<path style="fill:#f0962d; stroke:none;" d="M546 545L542 558L543 558L546 545z"/>
<path style="fill:#814a28; stroke:none;" d="M292 547L292 551L293 551L292 547z"/>
<path style="fill:#652716; stroke:none;" d="M336 551L325 557L325 558C329.16 557.428 336.117 556.175 336 551z"/>
<path style="fill:#90592e; stroke:none;" d="M294 554L296 557L294 554z"/>
<path style="fill:#9e6b34; stroke:none;" d="M320.667 558.333L321.333 558.667L320.667 558.333z"/>
<path style="fill:#ddaa49; stroke:none;" d="M515 564L515 565L528 559L518 581L536 572L536 571L522 577L529 558L515 564z"/>
<path style="fill:#daba67; stroke:none;" d="M40 560L53 587L54 587L70 585L57 559L40 560z"/>
<path style="fill:#864d26; stroke:none;" d="M314 559L314 560L320 560L314 559z"/>
<path style="fill:#b58841; stroke:none;" d="M300 560L300 561L309 561L300 560z"/>
<path style="fill:#884f29; stroke:none;" d="M309 560L309 561L314 561L309 560z"/>
<path style="fill:#ed8228; stroke:none;" d="M481 565L481 566L489 562L481 565z"/>
<path style="fill:#e9c759; stroke:none;" d="M253 563L236.224 588.745L227 599C225.878 603.357 223.357 605.878 219 607C217.878 611.357 215.357 613.878 211 615C209.002 622.645 196.373 629.006 189.435 631.71C169.87 639.334 154.129 647.933 134 638C142.576 651.71 156.863 662.544 169 673C205.28 704.252 252.851 733.092 300 744L300 743L293 741L293 740L303 735L319 707L323 707L331 691L335 691L341 667L345 667C345.258 643.665 364.317 622.126 365 599L370 600L359.015 597.776L328 593L328 590C309.633 589.209 292.405 578.84 276.09 571.29C268.434 567.747 261.654 563.03 253 563z"/>
<path style="fill:#dd9b46; stroke:none;" d="M261 563L266 567L261 563z"/>
<path style="fill:#7e0b08; stroke:none;" d="M362 564L361 570L362 570L362 564z"/>
<path style="fill:#ef8e2d; stroke:none;" d="M403 568L403 569L411 565L403 568z"/>
<path style="fill:#dfa948; stroke:none;" d="M514 565L497 579C504.227 577.343 511.186 571.537 516 566L514 565z"/>
<path style="fill:#7b2b11; stroke:none;" d="M296 569L296 570L304 572L304 571L296 569z"/>
<path style="fill:#ee882a; stroke:none;" d="M498 573L498 574L506 570L498 573z"/>
<path style="fill:#6d200e; stroke:none;" d="M304 572L304 573L310 574L304 572z"/>
<path style="fill:#f0992e; stroke:none;" d="M462 581L462 582L473 576L462 581z"/>
<path style="fill:#ef972e; stroke:none;" d="M313 578L313 579C332.473 585.076 356.288 585.113 376 580L354 581.999L313 578z"/>
<path style="fill:#802f12; stroke:none;" d="M327 578L327 579L337 579L327 578z"/>
<path style="fill:#ee882a; stroke:none;" d="M442 586L442 587L457 581L442 586z"/>
<path style="fill:#f09b31; stroke:none;" d="M309 582L309 583L324 587L324 586L309 582z"/>
<path style="fill:#ed8228; stroke:none;" d="M454 587L466 586L466 585L458 585L458 584L460 584C456.945 582.938 455.43 584.268 454 587z"/>
<path style="fill:#cea74a; stroke:none;" d="M54 585C57.1956 601.572 67.2956 605 82 605C76.1852 589.636 69.6363 585 54 585z"/>
<path style="fill:#c2933f; stroke:none;" d="M440 590L440 591L452 591L440 590z"/>
<path style="fill:#ec8629; stroke:none;" d="M348 592L348 593L361 594L348 592z"/>
<path style="fill:#f2a432; stroke:none;" d="M361 594L361 595L397 595C387.44 590.989 371.387 594 361 594z"/>
<path style="fill:#d9ad4c; stroke:none;" d="M356 597L356 598L399 600L378.001 598.995L356 597z"/>
<path style="fill:#dfa646; stroke:none;" d="M399 597L399 598L415 598L399 597z"/>
<path style="fill:#c78736; stroke:none;" d="M371 598L371 599L399 599L371 598z"/>
<path style="fill:#d9b760; stroke:none;" d="M66 605L84 632L101 630L83 604L66 605z"/>
<path style="fill:#cda546; stroke:none;" d="M85 630C89.117 645.839 101.924 649 116 649C109.247 634.432 99.9237 630 85 630z"/>
<path style="fill:#d7b55b; stroke:none;" d="M98 648L125 676L141 674L117 648L98 648z"/>
<path style="fill:#caa03a; stroke:none;" d="M126 674C130.519 690.057 149.037 694 163 694C155.779 679.738 140.641 674 126 674z"/>
<path style="fill:#d5b153; stroke:none;" d="M147 694C155.35 704.258 172.609 716.304 185 721L199 719L176 702.116L164 694.024L147 694z"/>
<path style="fill:#c79c33; stroke:none;" d="M185 719C186.707 724.172 192.512 726.289 197 728.85C209.761 736.13 218.468 738 233 738C221.27 726.145 201.084 719 185 719z"/>
<path style="fill:#d3af4f; stroke:none;" d="M215 738L215 739C236.698 747.418 257.944 759.764 281 764.407C287.024 765.621 294.759 764 301 764L266 751.656L235 738.275L215 738z"/>
<path style="fill:#c59e3f; stroke:none;" d="M285 764L285 765C322.204 776.896 361.281 779 400 779L357 774.83L285 764z"/>
<path style="fill:#dab451; stroke:none;" d="M388 770L388 771L421 771L388 770z"/>
<path style="fill:#f7ebc5; stroke:none;" d="M443 775L443 776L451 776L443 775z"/>
<path style="fill:#ffebbe; stroke:none;" d="M337 776L337 777L342 777L337 776z"/>
<path style="fill:#e9d8ad; stroke:none;" d="M347 777L347 778L354 778L347 777z"/>
<path style="fill:#ddbc5f; stroke:none;" d="M389 777L389 778L416 778L389 777z"/>
<path style="fill:#fbeecc; stroke:none;" d="M416 778L416 779L427 778L416 778z"/>
<path style="fill:#ffefc3; stroke:none;" d="M355 778L355 779L363 779L355 778z"/>
<path style="fill:#e0cc91; stroke:none;" d="M408 778L408 779L416 779L408 778z"/>
<path style="fill:#f6e8c5; stroke:none;" d="M375 779L375 780L404 780L375 779z"/>
</svg>
