<?xml version="1.0" encoding="utf-8"?>
<!-- Generator: Adobe Illustrator 23.0.6, SVG Export Plug-In . SVG Version: 6.00 Build 0)  -->
<svg version="1.1" id="Layer_1" xmlns="http://www.w3.org/2000/svg" xmlns:xlink="http://www.w3.org/1999/xlink" x="0px" y="0px"
	 viewBox="0 0 1804.1 538.3" style="enable-background:new 0 0 1804.1 538.3;" xml:space="preserve">
<style type="text/css">
	.st0{fill:#fff;}
</style>
<title>Prancheta 1</title>
<path class="st0" d="M82.3,23.7H182l-64.1,302.1h160.4l-18.7,86.6H0L82.3,23.7z"/>
<path class="st0" d="M301.6,412.4c0.4-33.8,4.2-67.5,11.5-100.5L350,141.7h100.5l-43.7,193c-5,25.6-7.7,51.6-8.1,77.6L301.6,412.4z
	 M404.7,103.9c-16.1,0-36.5-2.1-43.3-7.6c-3.4-8.5-2.1-25.5,1.3-42.4c3.8-18.2,10.2-36.5,17-46.2C390.7,3,414.1,0,428.9,0
	c17,0,38.2,3,45.8,7.6c3.4,7.6,2.1,24.6-1.3,42.4c-4.7,18.2-11,37.3-16.5,46.2C445.5,101,421.7,103.9,404.7,103.9z"/>
<path class="st0" d="M738.2,312.6c-6.8,26.7-13.6,85.7-12.7,99.7h-96.7c0.4-22.3,2.1-44.5,5.1-66.6c3.4-20.4,6.4-34.4,17.8-86.1
	c4.7-24.6,0-31.8,0-31.8c-29.7,10.2-57.7,33.1-75.9,50.1c-9.8,44.5-29.3,134.9-29.3,134.9h-97.6l34.4-168
	c5.1-34.4,9.3-68.3,13.6-102.7h83.2l1.7,56.4c26.3-26.7,71.3-64.1,122.6-64.1c37.8,0,56.4,26.3,57.3,59
	C762.4,216.7,747.5,275.3,738.2,312.6z"/>
<path class="st0" d="M785.3,412.4c0.4-33.8,4.2-67.5,11.5-100.5L862.5,4.7H963l-72.5,329.6c-5,25.6-7.7,51.6-8.1,77.6L785.3,412.4z
	 M950.7,412.4c0,0-31.4-69.2-36.5-143.4v-1.3c34.4-63.2,94.2-126,94.2-126H1109c0,0-62.4,70.4-93.3,122.2
	c11.5,70.4,47.9,148.5,47.9,148.5H950.7z"/>
<path class="st0" d="M1332.6,23.3l40.3,389H1330l-13.2-128.5h-140.4l-67.9,128.5h-42.8l207-389L1332.6,23.3z M1195.9,245.6h117.9
	l-18.7-186.7L1195.9,245.6z"/>
<path class="st0" d="M1451.8,240.5c6.3-30.4,9.8-61.4,10.2-92.5h41.2c0.3,23.7-1.6,47.4-5.5,70.8c25.5-31.4,73-78.9,114.5-78.9
	c24.2,0,49.6,36.1,49.6,91.6c0,84.4-45.8,162.5-113.7,187.9c-30.6-0.5-60.8-6.7-89.1-18.2l-30.1,137h-41.6L1451.8,240.5z
	 M1485.7,273.2v0.4l-20.4,97.6c22.9,10.1,47.5,15.7,72.5,16.5c32.7-15.3,79.3-69.2,81-138.3c1.7-41.2-9.3-65.8-18.7-73.8
	C1556.6,187.5,1505.2,247.3,1485.7,273.2z"/>
<path class="st0" d="M1693.2,412.4c-0.4-29.1,2.5-58.1,8.5-86.5l39-177.3h41.6l-37.8,171.8c-6.3,30.4-9.8,61.4-10.2,92.5h-41.2
	L1693.2,412.4z M1772.5,88.2c-7.6,0-16.1-1.3-18.7-3.4c-2.1-3.4-1.7-11,0-18.2c1.3-7.5,3.8-14.7,7.6-21.2c7-2,14.3-3,21.6-3
	c7.6,0,17,0.4,19.9,3c1.7,3.4,1.3,11-0.4,19.5c-1.2,7.1-3.8,13.9-7.6,19.9C1787.8,87.4,1780.1,88.5,1772.5,88.2L1772.5,88.2z"/>
</svg>
