<?xml version="1.0" encoding="utf-8"?>
<!-- Generator: Adobe Illustrator 23.0.6, SVG Export Plug-In . SVG Version: 6.00 Build 0)  -->
<svg version="1.1" id="Layer_1" xmlns="http://www.w3.org/2000/svg" xmlns:xlink="http://www.w3.org/1999/xlink" x="0px" y="0px"
	 viewBox="0 0 719.3 532.8" style="enable-background:new 0 0 719.3 532.8;" xml:space="preserve">
<style type="text/css">
	.st0{fill:#fff;}
</style>
<title>Prancheta 1</title>
<path class="st0" d="M200.7,152.6L200.7,152.6c-0.5,2.2-0.8,4.5-0.8,6.8c-1.3,10.8,6.2,20.6,17,22.1h2.5c9.9-0.2,18.2-7.6,19.5-17.4
	c9.7-74.6,78-127.2,152.7-117.5c60.4,7.8,108.2,54.8,117.2,115l0.8,3.8c7.3-2,14.9-3.1,22.5-3.4c20.8-0.1,40.9,7.8,56,22.1
	c6.4,6.4,16.5,7.1,23.8,1.7l2.1-1.7c8.1-6,9.8-17.4,3.8-25.5c-0.8-0.8-1.3-1.7-2.1-2.5c-20.8-19.6-47.8-31.3-76.4-33.1
	C507,31.8,406.9-15.9,315.8,16.3c-46.8,16.6-84.3,52.2-103.3,98.1c-5.9-0.8-11.9-1.3-17.8-1.3c-58.7,0.1-109,42-119.6,99.7
	c-1.9,9.9,4.5,19.5,14.4,21.6c1.3,0,2.1,0.4,3.4,0.4H95c9-0.1,16.6-6.8,17.8-15.7C120.7,177.7,158.6,149,200.7,152.6z"/>
<path class="st0" d="M540.9,375.8H175.2c-17.1,0-33.7-6.2-46.7-17.4c-6.2-5.9-15.7-6.4-22.5-1.3l-3.4,2.5
	c-7.7,5.9-9.2,16.9-3.4,24.6c0.8,0.8,1.3,1.7,2.1,2.5c20.3,18.2,46.6,28.4,73.8,28.4h365.7c51.7,0,96.4-36,107.3-86.5
	c2.1-10.5-4.6-20.7-15.1-22.9c-0.1,0-0.1,0-0.2,0c-1.2-0.3-2.5-0.5-3.8-0.4l0,0c-8.8-0.1-16.5,5.9-18.7,14.4
	C603.1,352.3,574.3,375.5,540.9,375.8z"/>
<path class="st0" d="M675,198c-16.2,0.1-31,8.9-39,22.9c-0.4,0-9.8-1.7-10.2-1.7c-4.2-0.8-97.6-17.4-184.5,50.5
	c-5.6,4.6-11.6,8.7-17.8,12.3c-0.4-7.2,0-17.4,0-25c0.8-31.8,1.7-67.9-25.9-83.6s-62.4,3.4-89.5,21.2
	c-67.2,42.6-142.7,70.3-221.5,81.5c-1.2,0-2.3,0.3-3.4,0.8c-11.9-21.4-38.9-29.1-60.4-17.2C8.7,267.5,0,282.4,0,298.5l0,0
	c0,24.6,19.9,44.5,44.5,44.5l0,0c16,0.1,30.8-8.5,38.6-22.5c9.3,0,18.7,0,27.6-0.8c5.1-0.4,106.1-11.9,221.9-87
	c28-18.2,39.9-19.5,42.4-19.5c3.8,6.8,3.4,29.7,3,42.4c-0.8,29.3-1.3,59.4,22.1,71.3c5,2.5,10.5,3.8,16.1,3.8
	c17.8,0,36.5-12.3,52.6-25c70.4-54.7,154.4-42.4,155.3-42c3.4,0.4,7.2,0.8,11.9,1.3c11.8,21.4,38.6,29.1,60,17.3
	c0.2-0.1,0.4-0.2,0.7-0.4c21.4-12.1,29-39.2,17-60.7C706.2,206.8,691.2,197.8,675,198L675,198z M43.7,316.7
	c-10.3-0.1-18.6-8.4-18.7-18.7l0,0c0.1-10.3,8.4-18.6,18.7-18.7l0,0c10.3,0,18.7,8.3,18.7,18.6C62.4,308.4,54.1,316.7,43.7,316.7
	C43.7,316.7,43.7,316.7,43.7,316.7z M675,261.2c-10.3,0-18.7-8.4-18.7-18.7c0-10.3,8.4-18.7,18.7-18.7c10.3,0,18.7,8.4,18.7,18.7
	l0,0l0,0C693.4,252.8,685.2,261,675,261.2z"/>
</svg>
