<svg xmlns="http://www.w3.org/2000/svg" width="227.909" height="244.813" viewBox="0 0 227.909 244.813"><defs><style>.a{fill:#1e1e1e;opacity:0.05;}.b,.c,.f,.h{fill:none;}.b,.c{stroke:#d0e6f7;stroke-width:1.625px;}.b,.f,.h{stroke-miterlimit:10;}.c{stroke-linecap:round;stroke-linejoin:round;}.d{fill:#5a2b80;}.e{fill:#f9b087;}.f{stroke:#a577b3;}.f,.h{stroke-width:0.813px;}.g{fill:#a577b3;}.h{stroke:#5a2b80;}.i,.k{fill:#faac2b;}.j{fill:#e19b26;}.k{opacity:0.5;mix-blend-mode:multiply;isolation:isolate;}.l{fill:#fcb73c;}.m{fill:#3b2e7a;}</style></defs><g transform="translate(-510.092 -586.761)"><ellipse class="a" cx="55" cy="12" rx="55" ry="12" transform="translate(510.092 807.573)"/><g transform="translate(525.945 587.573)"><g transform="translate(0)"><ellipse class="b" cx="1.449" cy="1.449" rx="1.449" ry="1.449" transform="translate(0 90.833)"/><ellipse class="b" cx="1.449" cy="1.449" rx="1.449" ry="1.449" transform="translate(18.558 34.764)"/><ellipse class="b" cx="1.449" cy="1.449" rx="1.449" ry="1.449" transform="translate(100.923 23.445)"/><ellipse class="b" cx="1.449" cy="1.449" rx="1.449" ry="1.449" transform="translate(99.185 133.594)"/><g transform="translate(132.751 49.759)"><line class="c" y2="3.277" transform="translate(1.638)"/><line class="c" x1="3.277" transform="translate(0 1.638)"/></g><g transform="translate(87.908)"><line class="c" y2="3.277" transform="translate(1.638)"/><line class="c" x1="3.277" transform="translate(0 1.639)"/></g><g transform="translate(207.967 101.554)"><line class="c" y2="3.277" transform="translate(1.639)"/><line class="c" x1="3.277" transform="translate(0 1.638)"/></g></g><g transform="translate(151.874 99.559)"><g transform="translate(0 0.757)"><path class="d" d="M829.566-310.547s-6.1,2.6-6.095,3.9c0,.747,8.387-.322,8.892-.827.808-.809-.327-2.964-.327-2.964Z" transform="translate(-817.635 400.185)"/><path class="e" d="M836.451-320.028l.391,3.75a1.145,1.145,0,0,0,1.055.674,1.775,1.775,0,0,0,1.414-.674l-.3-4.693" transform="translate(-824.912 406.028)"/><path class="d" d="M832.381-514.541c2.218,8.939,1.4,13.479-1.855,20.222-1.969,22.672-3.345,45.255-5.994,67.36l-2.8.16c-6.365-21.523-12.221-53.7-11.475-83.11" transform="translate(-810.19 514.541)"/></g><g transform="translate(18.563 0)"><path class="d" d="M884.911-308.562s-6.1,2.6-6.095,3.9c0,.747,8.386-.322,8.892-.827.809-.808-.327-2.964-.327-2.964Z" transform="translate(-867.224 399.829)"/><path class="e" d="M891.8-318.043l.391,3.75a1.144,1.144,0,0,0,1.055.674,1.776,1.776,0,0,0,1.415-.674l-.3-4.693" transform="translate(-874.5 405.673)"/><path class="d" d="M876.344-516.264c2.8,8.772,2.284,13.357-.512,20.3-.465,22.753-2.03,46.512-3.211,68.744h-2.88c-7.775-21.054-16.1-53.561-17.305-82.957" transform="translate(-852.435 516.264)"/><g transform="translate(14.476 6.044)"><path class="f" d="M885.378-502.51a5.019,5.019,0,0,0,2.385,1.855,11.86,11.86,0,0,0,2.973.673,21.031,21.031,0,0,0,3.626.186" transform="translate(-885.378 502.51)"/><path class="f" d="M886.283-499.267a8.275,8.275,0,0,0,3.726,1.836,19.462,19.462,0,0,0,4.163.394" transform="translate(-885.885 500.692)"/></g></g></g><g transform="translate(132.88 39.535)"><path class="e" d="M795.141-622.863c-9.7,16.879-20.141,32.165-26.332,50.622l-1.845-.981c.471-17.136,6.026-42.054,13.319-57.568" transform="translate(-766.964 640.49)"/><path class="g" d="M798.206-652.863a25.652,25.652,0,0,0-6.531,3.189,22.227,22.227,0,0,0-7.541,9.1,41.174,41.174,0,0,0-3.247,11.471,30.458,30.458,0,0,0,8.714,2.611,46.025,46.025,0,0,0,9.6,0" transform="translate(-774.769 652.863)"/></g><g transform="translate(148.577 36.365)"><path class="g" d="M803.193-646.931c-1.032,18.255-.245,37.033.218,54.79,0,0,6.365,1.694,21.831,1.694,15.407,0,25.5-4.7,25.5-4.7-2.985-18.249-5.36-40.641-12.67-55.664,0,0-8.25-8.9-16.389-9.264a10.613,10.613,0,0,0-4.829,1.25c-1.148.534-6.425,1.824-6.425,1.824Z" transform="translate(-802.686 660.077)"/><path class="h" d="M803.127-626.456c-.4,3.509-.4,14.342-.4,14.342" transform="translate(-802.707 641.229)"/></g><path class="i" d="M817.117-516.221c0,13.292-10.06,21.313-18.657,21.313h-14.1v-42.627h14.1C807.058-537.534,817.117-529.513,817.117-516.221Z" transform="translate(-643.834 627.747)"/><path class="j" d="M800.608-519.031c0,12.988-7.691,23.517-17.178,23.517H767.87v-47.033h15.56C792.918-542.548,800.608-532.019,800.608-519.031Z" transform="translate(-634.592 630.557)"/><path class="k" d="M837.679-518.269q-5.048,6.878-9.83,13.946a2.382,2.382,0,0,0,1.2-.63c0,.354-.563.965-.065,1.193s1.025-.357,1.544-.2c.488-.114.944-.726,1.3-1.079a2.663,2.663,0,0,0-.218.823c3.433-1.335,6.5-4.536,9.173-7.112A21.515,21.515,0,0,0,837.679-518.269Z" transform="translate(-668.215 616.947)"/><ellipse class="l" cx="17.177" cy="23.516" rx="17.177" ry="23.516" transform="translate(117.212 88.01)"/><g transform="translate(129.935 99.698)"><g transform="translate(0 16.667)"><path class="j" d="M766.152-474.523a3.256,3.256,0,0,1-2.945,3.495,3.256,3.256,0,0,1-2.945-3.495,3.256,3.256,0,0,1,2.945-3.495A3.256,3.256,0,0,1,766.152-474.523Z" transform="translate(-760.262 478.018)"/></g><path class="j" d="M766.152-512.453a3.256,3.256,0,0,1-2.945,3.495,3.256,3.256,0,0,1-2.945-3.495,3.256,3.256,0,0,1,2.945-3.495A3.256,3.256,0,0,1,766.152-512.453Z" transform="translate(-760.262 515.948)"/></g><g transform="translate(159.433 36.372)"><path class="e" d="M861.992-604.716s1.091,11.108-3.876,20.345a92.605,92.605,0,0,1-19.5,23.757l-1.637-.4c2.372-9.1,9.861-25.27,10.327-31.332s.354-13.084.466-16.46" transform="translate(-832.764 631.329)"/><path class="g" d="M845.913-660.063s9.142.625,14.446,5.106c7.572,6.4,8.694,18.92,8.694,21.829-2.288,2.473-7.292,2.6-10.937,2.6a12.571,12.571,0,0,1-6.31-1.745l-.744-13.813" transform="translate(-837.774 660.063)"/><path class="e" d="M832.267-503.12a5.812,5.812,0,0,0-2.923,1.292c-.8.626-1.786,1.673-1.683,2.151.109.5,1.421-.464,1.581-.269s-2.247,3.829-1.794,4.1,2.5-3.021,2.5-3.021-1.988,3.518-1.219,3.6c.643.065,2.407-3.265,2.407-3.265s-1.492,2.977-.982,3.089,1.895-2.853,1.895-2.853-1.126,2.534-.694,2.577a5.235,5.235,0,0,0,1.794-2.765c.457-1.5.991-2.805.579-3.977" transform="translate(-827.391 572.083)"/><line class="h" y2="12.585" transform="translate(14.414 15.428)"/></g><g transform="translate(147.917 16.111)"><path class="d" d="M802.711-687.2q-.072.818-.066,1.641a5.927,5.927,0,0,0,.845,3.4,3.574,3.574,0,0,0,1.963,1.377c.556.152,1.285.087,1.524-.437a1.421,1.421,0,0,0,.088-.6,16.122,16.122,0,0,0-1.159-5.939" transform="translate(-802.003 695.849)"/><path class="e" d="M817.455-692.29c-.783-3.057-3.25-7.339-7.265-6.48a7.338,7.338,0,0,0-5.583,4.661c-.886,2.871.55,6.211,2.27,8.554a7.072,7.072,0,0,0,2.367,2.2,5.961,5.961,0,0,0,7.038-1.785A8.237,8.237,0,0,0,817.455-692.29Z" transform="translate(-802.952 702.085)"/><path class="e" d="M820.774-670.39l1.312,4.792-1.786.842a4.357,4.357,0,0,0,4.055,1.422c5.478-.79,7.2-4.586,7.2-4.586l-3.091-.323-3.423-5.835" transform="translate(-811.9 688.18)"/><path class="d" d="M818.36-699.712a7.7,7.7,0,0,0-3.706-4.993c-3.242-1.969-7.856-2.127-10.742.585-1.643,1.544-4.6,7.02-1.067,8.106,1.1.339,2.24-.332,3.2-.974l2.931-1.959a2.316,2.316,0,0,1,1.146-.493,1.713,1.713,0,0,1,1.512,1.217,15.833,15.833,0,0,1,.426,2.026,1.936,1.936,0,0,0,.734,1.226.9.9,0,0,0,1.27-.255,2.248,2.248,0,0,0,.036-1.006c-.006-.34.184-.755.524-.74a.593.593,0,0,1,.327.142c.853.664.576,1.995.859,3.039.037.137-.248,2.249-.153,2.355C818.379-692.069,818.635-698.206,818.36-699.712Z" transform="translate(-801.184 706.172)"/><path class="e" d="M831.093-685.636a.754.754,0,0,1,.7-.785,1.485,1.485,0,0,1,1.068.406,2.357,2.357,0,0,1,.891,1.719,2.647,2.647,0,0,1-.485,1.465,1.569,1.569,0,0,1-.784.69,1.242,1.242,0,0,1-1.229-.392" transform="translate(-817.947 695.103)"/></g></g><g transform="translate(538.521 642.125)"><g transform="translate(0 82.77)"><g transform="translate(26.087 1.87)"><path class="j" d="M605.969-310.849s5.773.963,5.932,2.23c.091.727-8.092,1.593-8.647,1.165-.889-.685.2-3.248.2-3.248Z" transform="translate(-583.336 397.551)"/><path class="e" d="M605.5-319.844l.473,3.649a1.123,1.123,0,0,1-.942.789,1.74,1.74,0,0,1-1.461-.477l-.68-4.555" transform="translate(-583.329 403.006)"/><path class="g" d="M558.114-511.928c-1.032,8.978-1.088,13.293,2.924,19.445,1.9,8.688,4.821,17.58,7.027,26.473-.95,10.621,5.709,27.539,9.291,39.623l2.589-.443c3.48-21.747,4.766-55.1,1.643-84.292" transform="translate(-557.522 511.928)"/><path class="m" d="M602.805-314.658l-.4-1.576,3.338-.124.045,1.454Z" transform="translate(-583.052 400.685)"/></g><g transform="translate(0 0)"><path class="j" d="M500.844-311.67s4.517,3.264,4.117,4.413c-.229.658-7.576-2.065-7.869-2.664-.468-.96,1.545-2.685,1.545-2.685Z" transform="translate(-497.021 400.421)"/><path class="e" d="M504.07-320.013l-1.14,3.313a1.068,1.068,0,0,1-1.137.274,1.656,1.656,0,0,1-1.045-1.025l1.347-4.173" transform="translate(-499.141 405.55)"/><path class="g" d="M506.817-516.264c-2.752,8.608-2.241,13.107.5,19.92.166,8.155.248,16.407.342,24.66-5.81,14.543-6.73,27.592-5.995,41.44l2.8,1.039s16.683-29.078,19.751-40.573a189.97,189.97,0,0,0,6.057-40.512" transform="translate(-499.54 516.264)"/><path class="m" d="M500.748-319.241l.444-1.871,3.586,1.668-.707,1.6Z" transform="translate(-499.141 405.259)"/></g></g><g transform="translate(41.882 23.791)"><path class="e" d="M594.153-622.6c9.707,16.891,20.157,32.189,26.351,50.66l1.846-.982c-.472-17.149-6.03-42.085-13.329-57.612" transform="translate(-594.153 640.244)"/><path class="m" d="M603.835-653.048a25.647,25.647,0,0,1,6.535,3.191,22.243,22.243,0,0,1,7.547,9.107,41.217,41.217,0,0,1,3.25,11.479,30.5,30.5,0,0,1-8.72,2.613,46.055,46.055,0,0,1-9.612,0" transform="translate(-599.091 653.048)"/></g><g transform="translate(6.281 20.611)"><path class="m" d="M559.171-647.259c1.033,18.268.245,37.061-.218,54.832,0,0-6.37,1.7-21.848,1.7-15.419,0-25.516-4.7-25.516-4.7,2.987-18.263,5.364-40.672,12.68-55.706,0,0,8.256-8.905,16.4-9.271a11.406,11.406,0,0,1,5.126.872c1.149.534,6.138,2.2,6.138,2.2Z" transform="translate(-511.589 660.423)"/><path class="f" d="M622.142-626.117c.4,3.512.4,14.353.4,14.353" transform="translate(-574.473 640.909)"/></g><path class="i" d="M551.315-538.081c1.084,13,11.576,20.021,19.983,19.32l13.791-1.15-3.477-41.684-13.791,1.15C559.414-559.743,550.231-551.079,551.315-538.081Z" transform="translate(-527.854 624.819)"/><path class="j" d="M567.765-542.3c1.059,12.7,9.439,22.369,18.716,21.595L601.7-521.97l-3.837-45.992-15.216,1.269C573.367-565.919,566.706-555,567.765-542.3Z" transform="translate(-537.198 628.44)"/><ellipse class="l" cx="16.855" cy="23.076" rx="16.855" ry="23.076" transform="translate(42.779 61.97) rotate(-4.768)"/><g transform="translate(59.396 71.867)"><g transform="translate(1.36 16.298)"><path class="i" d="M637.939-500.085a3.194,3.194,0,0,0,3.165,3.177,3.2,3.2,0,0,0,2.594-3.658,3.194,3.194,0,0,0-3.165-3.177A3.194,3.194,0,0,0,637.939-500.085Z" transform="translate(-637.925 503.751)"/></g><g transform="translate(0 0)"><path class="i" d="M634.786-537.884a3.194,3.194,0,0,0,3.165,3.177,3.194,3.194,0,0,0,2.594-3.657,3.194,3.194,0,0,0-3.165-3.177A3.2,3.2,0,0,0,634.786-537.884Z" transform="translate(-634.772 541.55)"/></g></g><g transform="translate(61.287 71.068)"><path class="g" d="M640.638-536.8l21.508-1.794a2.4,2.4,0,0,0,2.175-2.6h0a2.4,2.4,0,0,0-2.575-2.2L640.238-541.6C638.592-541.464,638.906-536.657,640.638-536.8Z" transform="translate(-639.157 543.403)"/><path class="g" d="M643.791-499,665.3-500.8a2.4,2.4,0,0,0,2.175-2.6h0a2.4,2.4,0,0,0-2.575-2.2L643.391-503.8C641.745-503.665,642.059-498.858,643.791-499Z" transform="translate(-640.951 521.903)"/></g><g transform="translate(12.205 20.624)"><path class="e" d="M529.953-604.024s-1.091,11.117,3.879,20.361a92.674,92.674,0,0,0,19.517,23.775l1.638-.4c-2.374-9.111-9.869-25.289-10.335-31.355s-.354-13.094-.467-16.473" transform="translate(-527.9 630.657)"/><path class="m" d="M548.483-660.392s-9.149.626-14.457,5.11c-7.578,6.4-8.7,18.935-8.7,21.845,2.29,2.475,7.3,2.6,10.946,2.6a12.579,12.579,0,0,0,6.314-1.746l.745-13.824" transform="translate(-525.326 660.392)"/><path class="e" d="M584.48-500.333a5.822,5.822,0,0,1,2.926,1.293c.8.626,1.787,1.674,1.684,2.153-.109.5-1.422-.465-1.582-.269s2.249,3.833,1.795,4.105-2.5-3.023-2.5-3.023,1.99,3.521,1.219,3.6c-.643.065-2.409-3.267-2.409-3.267s1.493,2.979.982,3.091-1.9-2.855-1.9-2.855,1.127,2.536.694,2.579a5.241,5.241,0,0,1-1.8-2.767c-.457-1.5-.992-2.807-.579-3.98" transform="translate(-558.057 569.348)"/><line class="f" y2="12.594" transform="translate(16.877 15.44)"/></g><g transform="translate(31.316 0)"><path class="e" d="M580.592-693.679c.633-3.032,3-7.3,6.971-6.632a8.694,8.694,0,0,1,5.678,4.325c1.128,1.792.6,3.437-1.3,7.767a11.378,11.378,0,0,1-2.771,2.974,5.85,5.85,0,0,1-6.978-1.441A8.225,8.225,0,0,1,580.592-693.679Z" transform="translate(-575.764 703.762)"/><path class="d" d="M577-698.489c.579-.062.024-.46.255.074.148.342.192.441.513.564s.308.413.566.624c.4.328.773-.078.964-.427a4.02,4.02,0,0,0,.333-2.165c-.036-.566-.185-1.464.384-1.832.465-.3,1.441.208,1.9.362.708.238,1.407.5,2.111.749a12.735,12.735,0,0,0,5.315.972,5.189,5.189,0,0,0,4.083-2.33c.984-1.718-.732-4.093-2.582-4.176a7.1,7.1,0,0,0-1.431.232,1.1,1.1,0,0,1-.531-.015c-.4-.137-.557-.6-.769-.962a3.05,3.05,0,0,0-3.011-1.394,25,25,0,0,0-3.895,1,7.879,7.879,0,0,1-1.981-.054,2.1,2.1,0,0,0-1.807,1.071c-.534-.609-1.844.771-2.171,1.136a10.109,10.109,0,0,0-2.1,6.075c-.112,1.836.078,4.522,2.06,5.348.838.35,1.367.54,1.437-.24a12.274,12.274,0,0,1-.4-3.114,1.635,1.635,0,0,1,.824-1.712" transform="translate(-571.62 708.223)"/><path class="e" d="M581.251-674.027l-.639,4.6,1.463.566a4.187,4.187,0,0,1-3.516,2.2,11.224,11.224,0,0,1-8.91-3.678l1.732-.326,3.048-8.529" transform="translate(-569.649 691.711)"/><path class="e" d="M581.088-686.61a.741.741,0,0,0-.717-.739,1.456,1.456,0,0,0-1.029.445c-1.569,1.432.162,5.164,1.728,3.343" transform="translate(-574.812 696.351)"/><path class="d" d="M593.181-674.014c-.266.555-1.229.739-1.754.774-2.542.17-4.569-1.557-6.979-1.961a1.722,1.722,0,0,0-1.395.166,1.718,1.718,0,0,0-.435,1.262,15.724,15.724,0,0,0-.044,1.7,3.272,3.272,0,0,0,.329,1.419c1.015,1.868,4.65,2.334,6.506,2.3a3.878,3.878,0,0,0,2.137-.54,4.982,4.982,0,0,0,1.441-2.634A5.332,5.332,0,0,0,593.181-674.014Z" transform="translate(-576.996 689.477)"/><path class="e" d="M597.392-668.73a.5.5,0,0,0-.264-.109,24.521,24.521,0,0,1-2.743-.475,1.266,1.266,0,0,0-.47,0,.959.959,0,0,0-.616.743.649.649,0,0,0,.369.756,4.24,4.24,0,0,0,1.754.464,2.545,2.545,0,0,0,1.673-.225C597.353-667.767,597.752-668.447,597.392-668.73Z" transform="translate(-583.089 686.102)"/></g></g></g></svg>
